<?xml version="1.0" standalone="no"?>
<!DOCTYPE svg PUBLIC "-//W3C//DTD SVG 20010904//EN"
 "http://www.w3.org/TR/2001/REC-SVG-20010904/DTD/svg10.dtd">
<svg version="1.0" xmlns="http://www.w3.org/2000/svg"
 width="382.000000pt" height="338.000000pt" viewBox="0 0 382.000000 338.000000"
 preserveAspectRatio="xMidYMid meet">

<g transform="translate(0.000000,338.000000) scale(0.100000,-0.100000)"
fill="#000000" stroke="none">
<path d="M551 3252 c-104 -247 -172 -461 -206 -657 -9 -49 -20 -182 -25 -295
l-8 -205 -95 -222 c-73 -171 -105 -236 -140 -279 -42 -50 -46 -60 -46 -107 1
-29 -6 -96 -14 -149 -10 -72 -11 -103 -3 -117 24 -43 194 -258 256 -325 133
-143 297 -283 440 -377 l25 -17 -107 -101 c-163 -155 -245 -269 -263 -364 l-7
-37 71 0 c65 0 71 2 71 20 0 56 101 184 249 316 l103 93 52 -30 c74 -44 257
-131 361 -172 95 -37 269 -81 395 -101 46 -7 75 -16 76 -24 1 -6 2 -32 3 -57
l1 -45 65 0 65 0 0 48 0 48 198 -4 c218 -5 336 5 532 44 136 27 394 108 423
132 10 9 40 58 68 109 28 52 61 104 74 117 20 20 22 29 17 94 -2 38 1 101 8
139 20 115 92 406 106 435 8 14 50 82 94 150 154 234 268 503 350 823 52 202
73 353 68 484 -5 124 -23 169 -90 224 -151 122 -528 227 -818 227 -152 0 -270
-19 -415 -68 l-110 -37 -65 32 c-36 18 -94 38 -130 45 l-66 12 -24 54 c-31 72
-86 155 -144 220 l-48 52 -105 0 -105 0 49 -39 c117 -94 199 -201 249 -325 30
-75 52 -96 104 -96 57 -1 120 -19 197 -57 82 -40 85 -40 214 5 253 89 487 93
794 13 221 -58 343 -119 371 -186 53 -128 -53 -626 -211 -990 -54 -124 -100
-207 -197 -355 -100 -153 -93 -137 -139 -327 -51 -208 -69 -311 -69 -387 0
-51 -6 -70 -56 -162 l-55 -103 -123 -40 c-116 -38 -307 -81 -423 -96 l-52 -7
20 69 c10 37 29 103 41 145 21 76 22 78 57 84 101 17 222 84 263 145 28 44 81
340 99 554 14 169 6 452 -15 550 -47 214 -198 369 -384 397 -88 13 -156 -6
-208 -59 l-35 -35 -206 74 c-155 55 -207 78 -213 93 -30 78 -46 107 -74 133
-129 121 -350 134 -520 32 -92 -56 -160 -123 -266 -264 -162 -216 -294 -451
-379 -674 -29 -76 -31 -88 -22 -137 13 -72 52 -145 105 -201 l44 -46 -50 -139
-51 -139 -37 30 c-66 52 -196 197 -284 314 l-84 113 17 120 c14 96 22 126 43
154 37 49 77 133 164 341 l77 183 8 204 c16 387 70 589 296 1099 4 9 -13 12
-68 12 l-74 0 -54 -128z m995 -937 c61 -30 80 -59 65 -98 -16 -41 3 -72 58
-95 25 -11 169 -63 319 -117 l273 -98 27 20 c21 16 27 29 27 59 -1 48 7 54 70
54 130 -1 245 -117 290 -296 18 -73 25 -305 14 -484 -11 -169 -65 -488 -88
-520 -30 -43 -110 -79 -189 -86 -42 -4 -77 -13 -83 -21 -7 -7 -38 -102 -69
-211 l-57 -197 -156 2 c-86 1 -214 9 -284 18 -123 16 -316 56 -358 74 -11 5
-60 23 -110 41 -163 59 -396 184 -560 302 -41 29 -75 58 -75 65 0 6 29 91 65
189 36 98 65 188 65 201 0 16 -20 42 -61 81 -64 59 -98 117 -99 165 0 60 146
367 250 526 95 144 193 273 251 326 101 95 168 123 290 124 61 1 84 -4 125
-24z"/>
<path d="M805 1516 c-98 -45 -128 -114 -85 -194 44 -83 81 -108 138 -93 49 14
127 64 142 92 27 50 9 115 -51 184 -38 43 -71 45 -144 11z"/>
<path d="M1343 1011 c-138 -65 -60 -222 140 -283 117 -35 228 -8 257 62 15 37
8 65 -29 118 -68 92 -270 149 -368 103z"/>
<path d="M2271 963 c-128 -55 -147 -156 -50 -262 28 -31 34 -33 79 -29 64 6
139 52 164 100 17 31 18 41 8 75 -7 22 -30 61 -53 87 -35 40 -46 46 -77 45
-21 0 -53 -7 -71 -16z"/>
<path d="M850 3293 c-93 -257 -157 -526 -167 -699 -6 -99 -6 -101 20 -121 37
-29 71 -19 113 32 73 89 245 215 402 294 125 63 376 131 482 131 39 0 80 35
80 68 0 41 -102 185 -206 290 l-92 92 -126 0 c-69 0 -126 -2 -126 -4 0 -3 37
-24 81 -48 82 -43 227 -171 277 -244 l21 -31 -87 -18 c-128 -25 -256 -68 -364
-123 -94 -49 -232 -136 -296 -188 -18 -15 -34 -25 -36 -23 -20 19 122 517 178
629 l25 50 -73 0 -74 0 -32 -87z"/>
<path d="M2830 2795 c-193 -28 -230 -43 -230 -97 0 -23 19 -48 98 -126 223
-219 350 -461 400 -758 15 -86 23 -110 41 -125 48 -39 77 -18 167 117 149 223
340 744 298 812 -32 51 -207 138 -339 168 -97 22 -317 26 -435 9z m422 -139
c64 -17 169 -60 203 -82 23 -15 23 -16 8 -82 -32 -141 -149 -432 -220 -546
l-30 -48 -7 38 c-4 21 -21 78 -38 128 -71 214 -165 369 -332 550 -20 21 -34
41 -32 43 24 25 355 24 448 -1z"/>
<path d="M781 281 c-18 -5 -39 -31 -73 -90 -26 -46 -68 -108 -94 -137 l-46
-54 86 0 c84 0 85 0 110 33 41 55 96 162 96 189 0 22 -18 47 -45 60 -5 3 -21
2 -34 -1z"/>
<path d="M1060 131 c-48 -15 -105 -49 -150 -90 l-45 -40 100 -1 c55 0 116 5
135 10 24 7 47 7 75 0 22 -6 76 -10 120 -8 l80 3 -40 44 c-69 77 -182 110
-275 82z"/>
</g>
</svg>
