<?xml version="1.0" standalone="no"?>
<!DOCTYPE svg PUBLIC "-//W3C//DTD SVG 20010904//EN"
 "http://www.w3.org/TR/2001/REC-SVG-20010904/DTD/svg10.dtd">
<svg version="1.0" xmlns="http://www.w3.org/2000/svg"
 width="166.000000pt" height="90.000000pt" viewBox="0 0 166.000000 90.000000"
 preserveAspectRatio="xMidYMid meet">

<g transform="translate(0.000000,90.000000) scale(0.100000,-0.100000)"
fill="#4A4A4A" stroke="none">
<path d="M330 745 c-15 -33 -68 -148 -119 -256 -74 -159 -91 -204 -91 -242 l0
-47 150 0 150 0 0 -55 0 -55 50 0 50 0 0 55 c0 54 0 55 30 55 29 0 30 2 30 44
0 41 -2 45 -27 48 l-28 3 -3 103 -3 102 -49 0 -49 0 -3 -102 -3 -103 -79 -3
c-44 -2 -83 1 -88 6 -5 5 42 114 107 252 63 134 115 246 115 249 0 3 -25 6
-56 6 l-56 0 -28 -60z"/>
<path d="M724 781 c-38 -22 -58 -42 -73 -74 -19 -40 -21 -60 -21 -257 0 -246
7 -275 82 -326 37 -26 50 -29 118 -29 67 0 82 3 119 28 74 49 81 77 81 326 0
199 -2 218 -21 259 -31 63 -82 94 -167 99 -61 4 -72 1 -118 -26z m155 -85 c45
-24 51 -51 51 -247 0 -190 -7 -226 -49 -249 -25 -13 -77 -13 -102 0 -42 23
-49 58 -49 252 1 195 6 219 51 244 31 17 64 17 98 0z"/>
<path d="M1290 745 c-15 -33 -68 -148 -119 -256 -74 -159 -91 -204 -91 -242
l0 -47 150 0 150 0 0 -55 0 -55 50 0 50 0 0 55 c0 54 0 55 30 55 29 0 30 2 30
44 0 41 -2 45 -27 48 l-28 3 -3 103 -3 102 -49 0 -49 0 -3 -102 -3 -103 -79
-3 c-44 -2 -83 1 -88 6 -5 5 42 114 107 252 63 134 115 246 115 249 0 3 -25 6
-56 6 l-56 0 -28 -60z"/>
</g>
</svg>
