<?xml version="1.0" encoding="utf-8"?>
<!-- Generator: Adobe Illustrator 26.0.3, SVG Export Plug-In . SVG Version: 6.00 Build 0)  -->
<svg version="1.1" id="图层_1" xmlns="http://www.w3.org/2000/svg" xmlns:xlink="http://www.w3.org/1999/xlink" x="0px" y="0px"
	 viewBox="0 0 316 365" style="enable-background:new 0 0 316 365;" xml:space="preserve">
<path d="M242.2,6c-5.7,1-10.6,2.1-11,2.5c-0.4,0.4,0.4,0.5,1.9,0.2c5.2-1.3,23-3.7,27-3.7c2.3,0,6.3,1,8.8,2.2
	c4.9,2.5,20.8,17.8,27.1,26.3c10,13.4,16.2,31.9,18,53l0.7,9l0.1-6.9c0.3-13.7-4.2-31.7-11.5-45.8c-3.5-6.7-7-11.3-15.2-19.9
	c-5.8-6.2-13.3-13-16.5-15.1c-5.4-3.5-6.5-3.8-12.5-3.7C255.5,4.1,247.9,5,242.2,6z"/>
<path d="M213,15.8c-15.7,7.3-22.5,12.5-31.5,24.2c-4.8,6.3-11,17.2-11.9,21c-0.3,1.4,0.5,0.1,1.9-2.8c3.3-7,11.1-18.4,17.1-25.1
	c6.3-7,12-10.6,28-17.6C230.3,9.4,231.1,9,228.9,9C228.1,9.1,221,12.1,213,15.8z"/>
<path d="M209,12c-0.9,0.6-1,1-0.3,1c0.6,0,1.5-0.5,1.8-1C211.3,10.8,210.9,10.8,209,12z"/>
<path d="M203.8,14.6c-3.8,2-3.6,2.8,0.2,0.9c1.7-0.9,3-1.8,3-2C207,12.8,206.9,12.9,203.8,14.6z"/>
<path d="M196.4,18.5c-1,0.8-1.4,1.5-0.8,1.5c0.5,0,1.9-0.7,3-1.5c1-0.8,1.4-1.5,0.8-1.5C198.9,17,197.5,17.7,196.4,18.5z"/>
<path d="M65.5,40.1C53.1,42.7,36.4,47.8,31,50.5c-8,4.1-13.4,9.8-17.9,18.8C10.9,73.8,9,78.2,9,79c0,0.8,1.8-2.2,3.9-6.6
	c2.1-4.5,4.9-9.6,6.2-11.3c3.6-4.9,11.5-9.6,22.5-13.4c28.3-9.9,48.8-10.1,74.2-1c3.5,1.2,4.1,1.8,3.1,2.9c-0.9,1.1-0.8,1.4,0.6,1.4
	c0.9,0,3,1.1,4.7,2.5c1.6,1.4,3.7,2.5,4.6,2.5c0.9,0,2.5,1.4,3.4,3c1.3,2.3,2.4,3,4.7,3c1.6,0,3.2,0.4,3.5,0.9
	c0.8,1.2-2,2.2-4.1,1.5c-1.5-0.5-1.5-0.4-0.3,0.4c1,0.7,3.6,0.3,8.5-1.3c3.9-1.3,6.1-2.4,5-2.4c-1.1-0.1-7.9-3.3-15-7.1
	c-14.1-7.6-22.5-10.7-38-13.8C84.2,37.7,77.2,37.6,65.5,40.1z M130,53.2c3,1.7,4.9,3.3,4.2,3.6c-0.7,0.2-1.9-0.3-2.5-1.1
	c-0.7-0.8-3-2.4-5.2-3.6c-2.2-1.1-3.5-2-3-2C124.1,50,127,51.4,130,53.2z M143.4,62.1c-0.2,0.5-1.3,0.1-2.3-0.9
	c-1-0.9-2.6-2.3-3.7-3c-1-0.7,0-0.3,2.3,0.9C142,60.3,143.7,61.7,143.4,62.1z"/>
<path d="M250,39.7c-5.8,1-13.9,3.7-21.5,7.3C216.6,52.6,204,65.6,204,72.5c0,0.9,0.4,1.4,0.9,1.1c1.1-0.7,10.2,2.4,17,5.8
	c2.9,1.5,5.6,2.5,5.9,2.2c0.3-0.3,0.3-0.7,0.1-0.9c-1.5-1.1-16.9-7.7-19.1-8.3c-1.6-0.3-2.8-0.7-2.8-0.9c0-0.1,0.7-2,1.6-4.1
	c3.5-8.3,19.3-19.8,33.4-24.2c6-1.9,20.6-3.3,23.3-2.3c6.3,2.4,15.1,22,18.6,41.5c1.5,8.3,1.4,19.6-0.4,29.6
	c-0.8,4.7-1.4,10.3-1.4,12.5l0.1,4l0.8-4c4.9-24.5,4.2-41.5-2.6-61.4c-3.4-10-6.4-15.6-11.8-21.9c-1.7-1.9-2.9-2.2-8.5-2.1
	C255.5,39.2,251.4,39.5,250,39.7z"/>
<path d="M106.6,45.9c-0.3,0.5,0.1,1.1,0.9,1.5c1.5,0.6,2.9-0.7,1.8-1.8C108.4,44.7,107.2,44.8,106.6,45.9z"/>
<path d="M111.6,47.9c1.5,1.4,5.4,2.3,5.4,1.3c0-0.5-1-1.2-2.2-1.6C111.5,46.8,110.4,46.8,111.6,47.9z"/>
<path d="M163.9,56.7c-2.9,4.8-3.1,6.3-1,6.3c1.1,0,1.7-0.9,1.9-2.6c0.1-1.4,0.7-3.4,1.3-4.5C168.1,52.1,166.3,52.9,163.9,56.7z"/>
<path d="M11.6,57.5C10.2,58.8,9,60.2,9,60.6c0,0.4,1.4-0.5,3-2.1c1.7-1.6,3-3,3-3.2C15,54.6,14.1,55.1,11.6,57.5z"/>
<path d="M155.8,60.7c0.7,0.3,1.6,0.2,1.9-0.1c0.4-0.3-0.2-0.6-1.3-0.5C155.3,60.1,155,60.4,155.8,60.7z"/>
<path d="M146.5,64.6c-3.3,0.8-6.3,1.8-6.8,2.3s1.6,0.2,4.5-0.6c2.9-0.7,7.6-1.7,10.3-2.2c4.1-0.7,4.4-0.9,1.5-0.9
	C154.1,63.2,149.8,63.8,146.5,64.6z"/>
<path d="M60.7,72c-9,1.6-18.2,4.9-21.5,7.7c-4.6,3.9-5.8,11.3-4.3,26.7c1.9,19.5,6.5,33.9,14.9,47.1c5.1,7.9,15.7,22,17.3,23.1
	c2.1,1.2,3.6-2.1,6.3-13.8c3.2-13.8,7.5-22.7,19.8-41.3c8.9-13.6,13.1-18.8,21.1-26.6c5.2-5.2,5.7-6.5,2.6-7.4
	c-1.1-0.4-5-2.7-8.5-5.2c-5.3-3.7-8.4-5-18.2-7.4C77,71.6,67.8,70.7,60.7,72z M86.6,75.5c13.1,2.8,16.5,4.2,23.7,9.7
	c2.8,2.1,5.5,3.9,6,4.1c0.5,0.1-1.7,3-4.8,6.2c-7.6,7.9-14.6,17.3-24,32.3c-11,17.8-13.1,23-18,44.9c-0.3,1.3-1.1,2.3-1.8,2.3
	c-1.3,0-12.5-15.1-18.3-24.5c-8.6-14-13.4-33.4-13.3-53.5c0-15.9,1.6-17.9,17-21.9C63.3,72.4,72.8,72.5,86.6,75.5z"/>
<path d="M7.6,83.7c-1.7,7.3-1.8,33-0.2,44.3c1.8,12.1,4.1,23,3,14c-0.3-2.5-1.2-8.8-2-14C6.8,117,6.6,98.6,8,88.6
	C9,81.6,8.8,78.6,7.6,83.7z"/>
<path d="M230.1,82.4c0.2,0.2,3.6,2.5,7.4,5.1c13.7,9.3,30.2,25.2,37.7,36.3c2.7,4.1,5.2,7.1,5.5,6.9c1-1.1-9.6-15.6-16.2-22.1
	c-11-10.7-31.3-26.6-34.1-26.6C230,82,229.9,82.2,230.1,82.4z"/>
<path d="M314,99.5c0,1.9,0.2,3.5,0.4,3.5c0.2,0,0.6-1.6,0.8-3.5c0.2-1.9,0-3.5-0.4-3.5C314.4,96,314,97.6,314,99.5z"/>
<path d="M314,116.2c0,6.7,0.2,11.9,0.5,11.6c0.9-0.9,1.1-23.8,0.3-23.8C314.4,104,314,109.5,314,116.2z"/>
<path d="M255,116.8c0,1.2,1.9,2.6,2.6,1.9c0.2-0.2-0.2-1-1.1-1.7C255.6,116.2,255,116.2,255,116.8z"/>
<path d="M265.6,118.5c-1.1,0.8-1.5,1.5-0.9,1.5s1.6-0.7,2.3-1.5C268.6,116.6,268.1,116.6,265.6,118.5z"/>
<path d="M111.5,122c0.3,0.5,0.8,1,1.1,1c0.2,0,0.4-0.5,0.4-1c0-0.6-0.5-1-1.1-1C111.4,121,111.2,121.4,111.5,122z"/>
<path d="M237.3,122.8c-3.1,2.4-5.3,8.2-5.3,14.1v4.9l-5.7,0.6c-3.2,0.4-10.3,1.5-15.8,2.6c-5.5,1-13.6,2.3-18,2.8l-7.9,0.8l-5.8-6.2
	c-6.3-6.7-11.9-9.2-17.6-7.9c-1.8,0.3-3.3,0.2-3.7-0.4c-0.3-0.6-1.1-1.1-1.7-1.1c-0.7,0-0.7,0.4,0.1,1.4c0.9,1.1,0.5,1.6-2.1,2.7
	c-1.7,0.7-4,1.2-5,1.2c-1-0.1-2,0.2-2.3,0.8c-0.4,0.5,0.2,0.6,1.2,0.2c1.7-0.6,1.7-0.5-0.1,1.5c-1,1.2-2.3,1.9-2.9,1.5
	c-0.6-0.4-0.7-0.1-0.3,0.6c0.5,0.7,0.1,2-0.7,2.9c-8.5,9.4-14.1,52.5-10.6,81.6c3,24.5,5.4,31.1,12.9,34.6c4.8,2.2,5.1,2.3,9,0.7
	c4-1.5,4.1-1.5,4.9,0.6c0.7,1.8,0.4,2.3-1.3,2.8c-3.8,1.1-78.8,0.8-84.6-0.3c-3-0.6-6.5-1-7.7-1c-2.1,0-2.8-0.9-2.4-3.1
	c0.1-0.7-1.5-1.1-3.8-0.7c-0.8,0.1-1.1-0.4-0.8-1.3c0.4-1-0.2-1.3-1.9-1.1c-2,0.2-2.4-0.1-1.9-1.7c0.4-1,0.2-1.9-0.4-1.9
	c-0.6,0-0.8-0.7-0.5-1.5c0.4-0.8,0.1-1.5-0.5-1.5c-1.9,0-3.3-4.9-4.7-16c-1.7-13.5-1.7-14-0.1-13.4c0.9,0.3,1.3-0.7,1.3-3.6
	c0-2.2-0.3-3.5-0.7-2.8c-0.4,0.7-0.6,1.5-0.3,1.9c0.2,0.4-0.3,1.2-1.1,1.9c-1.2,1-1.3,0.7-0.5-2.2c0.6-1.8,1-3.8,1-4.4
	c0-2-6.9-8.6-8.2-7.8c-0.7,0.5-0.9,0.2-0.5-0.8c0.6-1.6-1.5-4.1-4.3-5.1c-1.2-0.4-1.2-0.6-0.1-0.6c0.9-0.1,0.4-1-1.3-2.6
	c-1.5-1.4-3.2-2.2-3.8-1.9c-0.7,0.5-0.9,0.2-0.6-0.8c0.3-0.8-0.7-3.7-2.2-6.4c-1.6-2.7-3.6-6.6-4.5-8.7c-1.7-3.7-3.9-5.2-2.9-2
	c0.5,1.6,0.4,1.6-0.6,0c-0.6-1-0.9-2.5-0.6-3.3c0.4-1,0.2-1.2-0.6-0.8c-0.7,0.5-0.9,0.2-0.5-0.9c0.3-0.9,0.2-1.7-0.4-1.9
	c-0.5-0.2-2.3-5.5-3.9-11.8c-1.5-6.3-2.9-10.6-2.9-9.5c-0.1,1.1,1,6,2.3,11c1.3,4.9,2.6,10.5,3,12.4c0.3,1.9,2.6,6.9,5.1,11.1
	c2.4,4.3,6.3,11.3,8.6,15.6c2.3,4.4,6.7,11.5,9.7,15.9c6.3,9.1,6.5,9.9,9.8,37c0.2,2.2,0.9,6.7,1.5,10c0.7,3.3,1.3,6.9,1.4,8
	c0.1,1.8,0.9,2,6.4,2.1c4.2,0.1,6.6,0.6,7.2,1.5c0.7,1.1,0.9,1.1,0.9-0.2c0-1.3,1.9-1.9,9.5-2.8c5.2-0.7,12.2-1.2,15.7-1.1
	c3.5,0,15.1-0.1,25.8-0.4c10.7-0.3,25.2-0.6,32.1-0.6h12.6l-1.6-5c-1.5-4.9-1.5-5-3.5-3.1c-3.4,3-6.6,3.2-11.5,0.8
	c-5.8-2.9-7.6-6.9-10.1-23.7c-3.7-23.7-3.3-47.6,1-68.2c2.8-13.1,5.1-19.3,9.2-24.2c5.9-7.1,17.9-10.7,24.6-7.2
	c3.2,1.7,12.2,11,12.2,12.7c0,0.6,0.7,0.9,1.5,0.5c0.8-0.3,5.5-1,10.3-1.6c4.8-0.6,13.2-1.9,18.7-3c5.5-1.1,12.3-2.1,15-2.2l5-0.3
	l0.1-6.1c0-3.4,0.7-7.6,1.4-9.4c2.4-5.9,10.6-7.8,17.9-4.1c7.2,3.7,19.7,19,28.5,34.9c9.8,17.8,21.6,61.3,19.2,70.8
	c-0.7,2.6-0.9,2.7-6.2,2.1c-2.9-0.3-5.4-0.5-5.4-0.4c0,0.1,0.7,2.4,1.6,5.2c0.9,3.1,1.7,10.7,2,20c0.3,8.2,0.7,15.5,0.9,16.1
	c0.2,0.7,2.6,0.8,7.4,0.3c8.5-0.9,10-2.3,12.7-11.4c1.4-4.5,1.8-9.6,1.9-20.5c0-13.6-0.2-15.4-3.8-29.5c-5.1-19.7-5.9-33.5-2.7-44
	c3.5-11.6,5.9-23.7,5.9-30c0.1-4.2-0.2-5.6-0.9-4.5c-0.5,0.8-1,3.9-1,6.7c0,3.1-0.5,5.3-1.1,5.3c-0.5,0-0.7,0.5-0.4,1
	c0.3,0.6,0,1.3-0.8,1.6c-0.8,0.3-1.7,1.9-2.1,3.5c-0.3,1.7-1.9,4.9-3.6,7.2c-1.6,2.3-3.2,6.1-3.6,8.4c-0.4,2.4-1,4.3-1.4,4.3
	c-1.3,0,1.7,7.3,3.6,8.8c1.7,1.3,1.7,1.4,0.1,0.9c-1.6-0.6-1.6-0.4-0.3,2.1c1.7,3.2,3.9,17.9,3,19.4c-0.4,0.6,0,1.4,0.7,1.9
	c1.2,0.8,1.2,1.1-0.1,1.9c-1.3,0.8-1.3,1,0.1,1c0.9,0,1.9,1,2.2,2.2c0.3,1.3,1.5,5.9,2.7,10.3c1.2,4.4,2.3,11.9,2.5,16.7
	c0.3,8,0.2,8.6-1.7,9.1c-1.6,0.5-1.9,1.1-1.4,3.1c0.3,1.4,0.2,2.8-0.4,3.1c-0.5,0.3-1,1.4-1,2.4c0,4-10.1,11.6-14.7,11.2
	c-0.4-0.1-0.8-3.3-0.9-7.3c-0.4-8.7-1.1-16-2.3-21l-0.9-3.8l3.7,0.6c3.9,0.6,6.3-1.1,7.3-5.1c2-8.1-9-49.1-17.8-66.7
	c-8-15.9-20.8-32.6-29.3-38C249.7,120.4,241,119.9,237.3,122.8z M310.6,153.6c-0.4,0.9-0.9,1.5-1.1,1.2c-0.3-0.3-0.3-1.3,0.1-2.2
	c0.4-0.9,0.9-1.5,1.1-1.2C311,151.7,311,152.7,310.6,153.6z M313.5,253.5c-0.3,3-1.1,5.3-1.6,5c-0.5-0.4-0.7-1.6-0.4-2.8
	c0.3-1.2,0.8-3.6,1-5.2c0.2-1.7,0.4-3.2,0.4-3.4c0.1-0.2,0.4-0.2,0.7,0.2C314,247.6,313.9,250.4,313.5,253.5z M310,260
	c0,0.5-0.5,1-1.1,1c-0.5,0-0.7-0.5-0.4-1c0.3-0.6,0.8-1,1.1-1C309.8,259,310,259.4,310,260z M310.1,265.3c-1,0.9-1.1,0.8-0.5-0.6
	c0.3-1,0.9-1.5,1.2-1.2C311.1,263.8,310.8,264.6,310.1,265.3z"/>
<path d="M177.2,126.4c0.7,0.8,1.5,1.2,1.7,1.1c0.5-0.6-1-2.5-2-2.5C176.4,125,176.5,125.6,177.2,126.4z"/>
<path d="M269,125.9c0,0.5,0.7,1.1,1.4,1.4c1,0.4,1.3,0.1,0.9-0.9C270.7,124.9,269,124.5,269,125.9z"/>
<path d="M183.8,129.7c0.7,0.3,1.6,0.2,1.9-0.1c0.4-0.3-0.2-0.6-1.3-0.5C183.3,129.1,183,129.4,183.8,129.7z"/>
<path d="M123,135.4c0,0.2,0.7,0.7,1.6,1c0.8,0.3,1.2,0.2,0.9-0.4C124.9,135,123,134.6,123,135.4z"/>
<path d="M310.5,143c-0.3,0.5-0.1,1,0.4,1c0.6,0,1.1-0.5,1.1-1c0-0.6-0.2-1-0.4-1C311.3,142,310.8,142.4,310.5,143z"/>
<path d="M129,144.4c0,0.3,1.4,1.1,3.1,2c2.2,1.1,2.8,1.2,2,0.2c-0.6-0.7-0.8-1.6-0.4-1.9c0.3-0.4-0.6-0.7-2-0.7
	C130.2,144,129,144.2,129,144.4z"/>
<path d="M91,156c-1.3,0.8-1.3,1,0.2,1c0.9,0,2-0.5,2.3-1C94.3,154.7,93,154.7,91,156z"/>
<path d="M81.6,157.3c0.3,1,0.9,1.5,1.2,1.2c0.3-0.3,0-1.1-0.7-1.8C81.1,155.8,81,155.9,81.6,157.3z"/>
<path d="M96.5,162c-0.3,0.5-0.2,1,0.4,1c0.5,0,1.3-0.5,1.6-1c0.3-0.6,0.2-1-0.4-1C97.6,161,96.8,161.4,96.5,162z"/>
<path d="M106.8,185.7c0.7,0.3,1.6,0.2,1.9-0.1c0.4-0.3-0.2-0.6-1.3-0.5C106.3,185.1,106,185.4,106.8,185.7z"/>
<path d="M283.2,201.9c0.4,1.4,1.2,2.9,1.7,3.5c0.7,0.7,0.8,0.2,0.3-1.5c-0.4-1.4-1.2-3-1.7-3.5C282.8,199.7,282.7,200.2,283.2,201.9
	z"/>
<path d="M176.3,211.7c1.5,0.2,3.9,0.2,5.5,0c1.5-0.2,0.2-0.4-2.8-0.4S174.7,211.5,176.3,211.7z"/>
<path d="M167.5,215.1c-2,1.8-4,4.1-4.6,5.3c-0.6,1.3-0.2,1.1,1.2-0.7c1.2-1.5,3.8-3.9,5.7-5.2c2-1.4,3.1-2.5,2.5-2.5
	C171.6,212,169.5,213.4,167.5,215.1z"/>
<path d="M186,213c2,1.3,3.3,1.3,2.5,0c-0.3-0.6-1.4-1-2.3-1C184.7,212,184.7,212.2,186,213z"/>
<path d="M307,213c-0.9,0.6-1,1-0.3,1c0.6,0,1.5-0.5,1.8-1C309.3,211.8,308.9,211.8,307,213z"/>
<path d="M289.4,216.8c0,1.1,0.3,1.4,0.6,0.6c0.3-0.7,0.2-1.6-0.1-1.9C289.6,215.1,289.3,215.7,289.4,216.8z"/>
<path d="M232.5,217.9c-4.3,1.1-7.1,2.7-9.4,5.7c-2.5,3.2-2.7,6.4-0.6,10.4c1.4,2.7,2,3,6.3,3c7.3-0.1,12.3-1.6,15.5-4.8
	c2.5-2.6,2.9-3.5,2.3-6.4C245.5,219.6,239.4,216.2,232.5,217.9z M242.6,221.5c3.3,3.3,3,8-0.6,10.7c-3.5,2.5-12.7,4-16,2.5
	c-3.5-1.7-4.1-8.4-1-11.2c1.8-1.7,2.3-1.7,3.1-0.5c0.9,1.3,1,1.3,0.6,0c-0.6-2.1,3-3.9,7.6-4C239,219,240.8,219.7,242.6,221.5z"/>
<path d="M232.5,223c0,1.4-0.4,2.8-1,3.2c-0.5,0.4,0.3,0.8,1.9,0.8c2.1,0,2.7,0.4,2.2,1.5c-0.3,0.9,0,1.5,1,1.5s1.4-0.6,1.1-1.4
	c-0.3-0.8,0.2-1.6,1.4-1.9c1-0.3,2.2-1.2,2.5-2.1c1-2.7-1.5-4.7-5.5-4.4C232.9,220.5,232.4,220.8,232.5,223z M239.8,222.2
	c1.6,1.6-0.3,3.8-3.4,3.8c-1.7,0-2.4-0.6-2.4-1.9C234,221.3,237.7,220.1,239.8,222.2z"/>
<path d="M160.6,224.5c-0.3,0.9-0.6,2.2-0.5,2.8c0,0.7,0.5,0.1,1-1.2c0.5-1.3,0.8-2.6,0.5-2.8C161.4,223.1,161,223.6,160.6,224.5z"/>
<path d="M251,215.3c0,1.1,0.3,1.4,0.6,0.6c0.3-0.7,0.2-1.6-0.1-1.9C251.2,213.6,250.9,214.2,251,215.3z"/>
<path d="M159.3,233.5c0,2.7,0.2,3.8,0.4,2.2c0.2-1.5,0.2-3.7,0-5C159.5,229.5,159.3,230.7,159.3,233.5z"/>
<path d="M160.1,241.6c0,1.1,0.3,1.4,0.6,0.6c0.3-0.7,0.2-1.6-0.1-1.9C160.3,239.9,160,240.5,160.1,241.6z"/>
<path d="M161,244.5c0,0.5,0.5,1.7,1,2.5s1,1,1,0.5c0-0.6-0.5-1.7-1-2.5S161,243.9,161,244.5z"/>
<path d="M131.4,270.4c-0.3,0.8-0.4,2.7-0.2,4.3c0.3,2.3,0.5,2,0.9-1.5C132.6,268.9,132.3,267.9,131.4,270.4z"/>
<path d="M145.8,270.7c0.7,0.3,1.6,0.2,1.9-0.1c0.4-0.3-0.2-0.6-1.3-0.5C145.3,270.1,145,270.4,145.8,270.7z"/>
<path d="M150.8,270.7c0.7,0.3,1.6,0.2,1.9-0.1c0.4-0.3-0.2-0.6-1.3-0.5C150.3,270.1,150,270.4,150.8,270.7z"/>
<path d="M96.1,273.6c0,1.1,0.3,1.4,0.6,0.6c0.3-0.7,0.2-1.6-0.1-1.9C96.3,271.9,96,272.5,96.1,273.6z"/>
<path d="M205.4,273.9c0.5,0.8,5.6,0.3,5.6-0.5c0-0.2-1.4-0.4-3.1-0.4C206.3,273,205.1,273.4,205.4,273.9z"/>
<path d="M224.3,274.7c0.9,0.2,2.5,0.2,3.5,0c0.9-0.3,0.1-0.5-1.8-0.5C224.1,274.2,223.3,274.4,224.3,274.7z"/>
<path d="M304.5,275.5c-3.3,1.1-3.5,1.4-1.4,1.4c1.4,0.1,3.4-0.6,4.5-1.4C309.8,273.8,309.7,273.8,304.5,275.5z"/>
<path d="M66.2,277c0,1.4,0.2,1.9,0.5,1.2c0.2-0.6,0.2-1.8,0-2.5C66.4,275.1,66.2,275.6,66.2,277z"/>
<path d="M232.8,275.7c0.7,0.3,1.6,0.2,1.9-0.1c0.4-0.3-0.2-0.6-1.3-0.5C232.3,275.1,232,275.4,232.8,275.7z"/>
<path d="M238.8,276.7c0.6,0.2,1.8,0.2,2.5,0c0.6-0.3,0.1-0.5-1.3-0.5C238.6,276.2,238.1,276.4,238.8,276.7z"/>
<path d="M169.2,279c0,1.4,0.2,1.9,0.5,1.2c0.2-0.6,0.2-1.8,0-2.5C169.4,277.1,169.2,277.6,169.2,279z"/>
<path d="M251,278.1c0,0.5,0.5,0.7,1,0.4c0.6-0.3,1-0.8,1-1.1c0-0.2-0.4-0.4-1-0.4C251.5,277,251,277.5,251,278.1z"/>
<path d="M292,280.7c0,4.3,0.6,4.1,1.3-0.5c0.3-1.7,0.1-3.2-0.4-3.2S292,278.6,292,280.7z"/>
<path d="M67.2,282c0,1.4,0.2,1.9,0.5,1.2c0.2-0.6,0.2-1.8,0-2.5C67.4,280.1,67.2,280.6,67.2,282z"/>
<path d="M252.1,281.6c0,1.1,0.3,1.4,0.6,0.6c0.3-0.7,0.2-1.6-0.1-1.9C252.3,279.9,252,280.5,252.1,281.6z"/>
<path d="M96.3,287c0,3,0.2,4.3,0.4,2.7c0.2-1.5,0.2-3.9,0-5.5C96.5,282.7,96.3,284,96.3,287z"/>
<path d="M169.1,283.6c0,1.1,0.3,1.4,0.6,0.6c0.3-0.7,0.2-1.6-0.1-1.9C169.3,281.9,169,282.5,169.1,283.6z"/>
<path d="M169.1,287.6c0,1.1,0.3,1.4,0.6,0.6c0.3-0.7,0.2-1.6-0.1-1.9C169.3,285.9,169,286.5,169.1,287.6z"/>
<path d="M68.2,289c0,1.4,0.2,1.9,0.5,1.2c0.2-0.6,0.2-1.8,0-2.5C68.4,287.1,68.2,287.6,68.2,289z"/>
<path d="M252.1,289.6c0,1.1,0.3,1.4,0.6,0.6c0.3-0.7,0.2-1.6-0.1-1.9C252.3,287.9,252,288.5,252.1,289.6z"/>
<path d="M131.4,301.5c0,6.6,0.1,9.2,0.3,5.7c0.2-3.4,0.2-8.8,0-12C131.5,292.1,131.4,294.9,131.4,301.5z"/>
<path d="M292,295.2l-0.5,5.6l3.7,1.1c4,1.3,9.2,5.2,10.9,8.3c0.9,1.6,0.4,1.5-3-0.8c-4-2.6-15.1-5.9-15.1-4.5c0,0.4,2.7,1.3,6.1,2
	c4.4,0.9,7,2.1,9.6,4.5c3.1,2.8,3.7,4,4.1,8.9c0.2,3.1,0.8,5.4,1.3,5.1c0.5-0.3,0.9-1.4,0.9-2.5c0-2.2,2.9-2.6,4.8-0.7
	c0.8,0.8,1.2,0.8,1.2,0.1c0-1.2-2.3-2.3-5-2.3c-1.7,0-1.7-0.4,0.6-6.1c1.4-3.4,2.3-6.3,2.1-6.5c-0.2-0.3-1.2,1.6-2.2,4.1l-1.7,4.6
	l-2.3-4.9c-2.3-5-6.1-8.5-11.4-10.3c-2.7-1-3-1.5-3.3-6.2l-0.3-5.2L292,295.2z"/>
<path d="M206.1,292.6c0,1.1,0.3,1.4,0.6,0.6c0.3-0.7,0.2-1.6-0.1-1.9C206.3,290.9,206,291.5,206.1,292.6z"/>
<path d="M69.1,294.6c0,1.1,0.3,1.4,0.6,0.6c0.3-0.7,0.2-1.6-0.1-1.9C69.3,292.9,69,293.5,69.1,294.6z"/>
<path d="M169.3,299c0,2.5,0.2,3.5,0.4,2.2c0.2-1.2,0.2-3.2,0-4.5C169.5,295.5,169.3,296.5,169.3,299z"/>
<path d="M205.8,299.5c-0.2,2.5,0,4.5,0.4,4.5c0.5,0,0.8-2,0.8-4.5s-0.2-4.5-0.4-4.5S206,297,205.8,299.5z"/>
<path d="M56,298.4c0,0.2,1.1,2.4,2.5,4.7c1.7,3.1,2.5,5.9,2.5,9.5c0,4.7,0.3,5.5,3.6,8.3c2.5,2.2,3.4,3.7,2.9,4.9
	c-0.5,1.4-0.4,1.5,0.6,0.5c0.7-0.7,2.4-1.3,3.8-1.3c3.8,0.1,15.1,3.3,19.1,5.5c4.2,2.3,35.4,14.9,39.3,15.8c2.3,0.6,2.7,1.3,2.7,4.1
	c0,1.9-1.3,5.9-2.9,9c-1.7,3.1-2.6,5.6-2.1,5.6s1.9-2.3,3.2-5c1.3-2.8,2.5-5,2.8-5s1.3,2.2,2.3,5c1,2.7,2.1,5,2.5,5s0.6-2.4,0.5-5.2
	c-0.1-2.9-0.2-5.3-0.3-5.3c-0.1,0-0.4-2.1-0.6-4.7c-0.5-4.5-0.4-4.9,2.3-5.9c1.5-0.6,3.6-1.5,4.5-2c1-0.5,4.2-0.9,7.2-0.9
	s5.8-0.5,6.1-1c0.3-0.6,1.7-1,3-1c2,0,2.6,0.7,3.5,4c0.6,2.2,1.5,4,2,4c1.5,0,1.2-3-0.5-4.7c-0.9-0.8-1.3-2.3-1-3.3
	c0.5-1.5-0.2-1.7-5.9-1.8c-3.5,0-11.4-0.8-17.6-1.7l-11.2-1.8l0.4-4.8c0.3-2.7,0.1-4.9-0.3-4.9c-0.5,0-0.9,1.8-0.9,3.9
	c0,2.2-0.3,4.6-0.6,5.5c-0.4,1.1,0.2,1.7,2.1,2.2c2.5,0.6,2.7,1,2.1,4.3c-0.3,2-0.6,4.1-0.6,4.8c0,0.8-2.2,0.4-6.7-1.1
	c-8.1-2.8-34.5-13.4-35.2-14.2c-0.4-0.3,1.5-0.3,4,0.1l4.6,0.7l-0.9-6.3c-1.1-8-2.3-9.3-1.5-1.7c0.3,3.2,0.2,5.8-0.3,5.8
	c-0.9,0-6.7-1.1-16.7-3.1l-5.2-1l-0.7-4.7c-0.3-2.6-1.2-7.2-1.9-10.2c-1.8-7.6-1.9-1.8-0.1,7.2c1.3,6.8,1.3,6.8-1,6.8
	c-1.2,0-3.6-1.2-5.3-2.6c-2.6-2.2-3.1-3.3-3.1-7.1c0-3.3-0.9-6.1-3.1-9.9C57.2,298.6,56,297.1,56,298.4z"/>
<path d="M70.1,300.6c0,1.1,0.3,1.4,0.6,0.6c0.3-0.7,0.2-1.6-0.1-1.9C70.3,298.9,70,299.5,70.1,300.6z"/>
<path d="M253.1,300.6c0,1.1,0.3,1.4,0.6,0.6c0.3-0.7,0.2-1.6-0.1-1.9C253.3,298.9,253,299.5,253.1,300.6z"/>
<path d="M96.1,301.6c0,1.1,0.3,1.4,0.6,0.6c0.3-0.7,0.2-1.6-0.1-1.9C96.3,299.9,96,300.5,96.1,301.6z"/>
<path d="M277.5,301.9c-7.1,3.3-12.3,9.6-14.5,18c-1.7,6.3-0.5,6.2,1.4-0.1c3-10.1,8.6-16,17.4-18.4c3-0.8,3.8-1.3,2.2-1.3
	C282.6,300.1,279.7,300.9,277.5,301.9z"/>
<path d="M314.6,302.6c-0.4,1.4-0.5,2.8-0.3,3.1c0.3,0.2,0.8-0.8,1.1-2.3c0.4-1.4,0.5-2.8,0.3-3.1
	C315.4,300.1,314.9,301.1,314.6,302.6z"/>
<path d="M278.9,306c-7.1,3.7-12.8,11.5-14.4,19.5c-0.3,1.6,0.5,0.4,1.8-2.9c2.9-7.3,7.5-12.9,12.7-15.3c2.2-1,4-2.1,4-2.6
	C283,303.8,283.1,303.8,278.9,306z"/>
<path d="M254.2,308c0,1.9,0.2,2.7,0.5,1.7c0.2-0.9,0.2-2.5,0-3.5C254.4,305.3,254.2,306.1,254.2,308z"/>
<path d="M190.6,310.1c-2.5,2.3-5.1,5.1-5.7,6.3c-0.7,1.4-0.1,1.1,1.8-1c1.5-1.8,4.4-4.6,6.3-6.3c1.9-1.7,3.2-3.1,2.9-3.1
	C195.6,306,193.2,307.8,190.6,310.1z"/>
<path d="M199,308.5c-5.3,2.7-12.5,10.1-16.4,16.8c-3.4,5.7-4.6,5.6-1.6-0.2c1.1-2.3,1.8-4.1,1.5-4.1c-0.2,0-1.4,1.8-2.5,4.1
	c-1.6,3.1-2.5,3.9-3.8,3.4c-0.9-0.4-2.5-0.9-3.4-1.2c-1.1-0.3-1.8-1.8-2.1-4.2l-0.4-3.6l-0.1,3.8c-0.2,2.9-0.9,4.4-3.2,6.4
	c-1.7,1.4-3,3.4-3,4.6c0.1,1.8,0.4,1.5,1.5-1.1c1.6-3.7,8.5-7.2,8.5-4.2c0,0.5-0.9,1-1.9,1c-2.6,0-5.1,3.7-5,7.5l0.1,3l0.8-3.4
	c1.3-5.5,5.3-7.8,10.1-5.7c1.2,0.5,2.3-0.5,4.4-4.1c4.9-8.3,11.3-15.1,17.1-17.9c4.6-2.2,6.3-2.6,11.3-2.1c6.8,0.5,14.7,4.3,14.5,7
	c-0.1,0.9,0.2,1.5,0.6,1.2c1.7-1.1,7.1,14.2,6.9,19.5c-0.1,2.3-0.2,2.3-0.9-0.5l-0.8-3l-0.1,2.8c0,1.6-0.6,3.7-1.1,4.7
	c-0.8,1.6-0.8,1.8,0.5,1.4c1-0.4,1.5,0,1.5,1c0,0.9-0.7,1.6-1.5,1.6s-1.5,0.6-1.5,1.4c0,0.7-0.7,1.9-1.5,2.6c-1.3,1-1.3,1.4,0,2.6
	c1.1,1.2,1.2,2,0.3,4.2c-0.7,1.5-1.5,3.1-1.9,3.6c-1.1,1.2,0.2-3.6,1.3-5c1.8-2.4-3-2.2-5.3,0.2c-1.2,1.3-1.8,2.4-1.2,2.4
	c0.6,0,1.3-0.5,1.5-1.2c0.3-0.7,1-0.8,1.7-0.3c1.1,0.6,0.9,1-0.5,1.8c-1.1,0.6-2.8,1.3-3.8,1.4c-1.1,0.2-3.9,1.4-6.2,2.7
	c-2.3,1.3-5.8,2.6-7.8,3c-7.3,1.4-4.2,2.4,7.4,2.4c8.5,0,12-0.3,12-1.1c0.1-2.1,3.7-6.1,4.4-4.8c0.4,0.6,1.2,1.1,1.9,1.1
	c0.6,0,0.2-0.6-0.9-1.4c-1.9-1.4-1.8-1.5,0.3-5.9c1.2-2.5,2.5-6.1,2.8-8c0.7-3.5,0.8-3.5,6.3-3.9c3.2-0.2,6-0.3,6.4-0.1
	c0.4,0.2,0.1,1.8-0.6,3.6c-0.8,1.7-1.9,6.5-2.6,10.5c-0.8,4.7-1.8,7.5-2.8,8.2c-1.6,0.9-1.6,0.9,0,1c1.2,0,2-1.2,2.7-3.8
	c0.5-2,1.7-6.6,2.6-10.2c2.4-9.3,2.5-9.5,8.9-9.8l5.6-0.3v4.8c0,2.6,0.5,7.7,1,11.2c0.8,4.6,0.8,6.7-0.1,7.7
	c-0.9,1.1-0.7,1.4,1.1,1.4c2.2,0,2.2-0.2,1.5-5.8c-0.5-3.1-1-10.2-1.1-15.7c-0.1-5.5-0.3-10.2-0.4-10.5s-0.2-1.4-0.1-2.5
	c0.2-1.7,0-1.7-0.8-0.5c-0.6,0.8-1.1,3-1.1,4.7c0,2.5-0.4,3.3-1.9,3.3c-1.6,0-1.7-0.5-1.2-3.8c0.4-2,0.4-5.3,0-7.2
	c-0.5-2.7-0.7-2-0.8,3.2c0,4.1-0.6,7-1.3,7.5c-0.7,0.4-5.5,0.9-10.5,1.1l-9.3,0.4v-2.9c0-4.1-2.7-12.8-6.1-19.4
	c-2.4-4.8-3.7-6.1-8.1-8.3C213.9,305.1,205.5,305.1,199,308.5z M224.3,358.4c0.4,1,0.1,1.3-0.8,0.9c-0.8-0.3-1.2-0.9-0.9-1.4
	C223.3,356.7,223.7,356.8,224.3,358.4z"/>
<path d="M96,308.9c0,0.6,0.5,1.3,1,1.6c0.6,0.3,1-0.1,1-0.9c0-0.9-0.4-1.6-1-1.6C96.5,308,96,308.4,96,308.9z"/>
<path d="M97.2,314c0,1.4,0.2,1.9,0.5,1.2c0.2-0.6,0.2-1.8,0-2.5C97.4,312.1,97.2,312.6,97.2,314z"/>
<path d="M170.2,317c0,1.4,0.2,1.9,0.5,1.2c0.2-0.6,0.2-1.8,0-2.5C170.4,315.1,170.2,315.6,170.2,317z"/>
<path d="M255.2,317.5c0,1.6,0.2,2.2,0.5,1.2c0.2-0.9,0.2-2.3,0-3C255.4,315.1,255.2,315.8,255.2,317.5z"/>
<path d="M131.1,317.6c0,1.1,0.3,1.4,0.6,0.6c0.3-0.7,0.2-1.6-0.1-1.9C131.3,315.9,131,316.5,131.1,317.6z"/>
<path d="M195.6,319.7c-1.1,1.1-0.6,2.3,0.8,2.3c0.8,0,1.7-0.4,2-0.9C199.1,320.1,196.5,318.8,195.6,319.7z"/>
<path d="M156,325c-0.9,0.6-1,1-0.3,1c0.6,0,1.5-0.5,1.8-1C158.3,323.8,157.9,323.8,156,325z"/>
<path d="M150,326c-1.2,0.8-1,1,0.8,1c1.3,0,2-0.4,1.7-1C151.8,324.8,151.9,324.8,150,326z"/>
<path d="M263.2,331c0,1.4,0.2,1.9,0.5,1.2c0.2-0.6,0.2-1.8,0-2.5C263.4,329.1,263.2,329.6,263.2,331z"/>
<path d="M62.9,333.7l-3.4,3.8l3.8-3.4c2-1.9,3.7-3.6,3.7-3.8C67,329.5,66.2,330.3,62.9,333.7z"/>
<path d="M103,331c1.4,0.4,3.4,0.8,4.5,0.8l2,0.1l-2-0.9c-1.1-0.5-3.1-0.8-4.5-0.8h-2.5L103,331z"/>
<path d="M250.3,330.7c0.9,0.2,2.5,0.2,3.5,0c0.9-0.3,0.1-0.5-1.8-0.5C250.1,330.2,249.3,330.4,250.3,330.7z"/>
<path d="M112.3,332.7c0.9,0.2,2.5,0.2,3.5,0c0.9-0.3,0.1-0.5-1.8-0.5S111.3,332.4,112.3,332.7z"/>
<path d="M122.3,333.7c0.9,0.2,2.5,0.2,3.5,0c0.9-0.3,0.1-0.5-1.8-0.5S121.3,333.4,122.3,333.7z"/>
<path d="M57.5,338c-0.3,0.5-0.1,1,0.4,1c0.6,0,1.1-0.5,1.1-1c0-0.6-0.2-1-0.4-1C58.3,337,57.8,337.4,57.5,338z"/>
<path d="M60,339.3c0,0.2,1.7,1.5,3.8,2.9C69,345.7,83,353.3,83,352.7c0-0.3-3.7-2.6-8.2-5.1c-4.6-2.5-9.8-5.5-11.5-6.7
	C61.5,339.8,60,339,60,339.3z"/>
<path d="M48,345.4c0.7,0.7,1.3,0.7,2,0c0.6-0.6,0.3-1-1-1S47.4,344.8,48,345.4z"/>
<path d="M52,348.5c-1,1.2-1,1.8,0,3c1.4,1.7,4.6,2,5.5,0.5c0.8-1.3,4.5-1.3,4.5,0.1c0,0.6-0.4,1.8-0.9,2.8c-1.9,3.5,1.1,5,7.2,3.5
	c2.5-0.6,2.7-0.4,2.7,2.4c0,3.9,1.3,4.7,5.1,3.2c2.3-1,3.2-1,4.6,0.1c1.4,1.2,1.6,1.2,1.1-0.1c-0.5-1.4-4.4-1.9-7.8-0.9
	c-1,0.3-1.6-0.5-1.8-2.6c-0.5-3.8-1.9-4.7-5.1-3.1c-3.9,2-5.3,1-4.5-3c0.5-2.7,0.3-3.5-1.1-4c-1-0.4-2.6-0.2-3.6,0.4
	c-3.7,2.3-7.3,0.6-4.9-2.3c0.7-0.8,1-1.5,0.7-1.5C53.5,347,52.7,347.7,52,348.5z"/>
<path d="M123.6,353.5c0.4,1.6,1.3,3.7,2,4.5c2,2,1.7,0.1-0.6-4l-2-3.5L123.6,353.5z"/>
<path d="M148.6,354.7c-0.6,1.4-0.5,1.5,0.5,0.6c0.7-0.7,1-1.5,0.7-1.8S148.9,353.7,148.6,354.7z"/>
<path d="M153.5,354c0.3,0.5,0.8,1,1.1,1c0.2,0,0.4-0.5,0.4-1c0-0.6-0.5-1-1.1-1C153.4,353,153.2,353.4,153.5,354z"/>
<path d="M142,356c0,0.5,0.5,1,1,1c0.6,0,1-0.5,1-1c0-0.6-0.4-1-1-1C142.5,355,142,355.4,142,356z"/>
<path d="M93,358c1.9,1.1,4,1.9,4.5,1.9c0.6,0-0.6-0.8-2.5-1.9s-3.9-1.9-4.5-1.9C90,356.1,91.1,356.9,93,358z"/>
<path d="M314.6,360.8c-0.5,1.8-0.5,3.6-0.2,3.9c0.7,0.7,1.9-4.3,1.3-5.9C315.5,358.1,315,359,314.6,360.8z"/>
<path d="M100,361c0.8,0.5,2,1,2.5,1c0.6,0,0.3-0.5-0.5-1c-0.8-0.5-1.9-1-2.5-1C99,360,99.2,360.5,100,361z"/>
<path d="M124.1,362c-1.3,1.1-1.9,2-1.3,2c1,0,4.2-2.7,4.2-3.6C127,359.7,126.6,359.9,124.1,362z"/>
<path d="M106,363.5c1.4,0.8,3,1.4,3.5,1.4c0.6,0-0.1-0.6-1.5-1.4s-2.9-1.4-3.5-1.4C104,362.1,104.6,362.7,106,363.5z"/>
<path d="M190.4,215.3c-0.2,0.2,0.5,1.5,1.4,2.8c0.9,1.3,1.6,1.9,1.4,1.2c-0.1-0.6-0.8-1.9-1.4-2.8
	C191.1,215.6,190.5,215.1,190.4,215.3z"/>
<path d="M194.7,222.7c0.2,1.3,0.9,3.5,1.6,5c0.7,1.6,0.6,0.5-0.3-2.2C195.1,222.7,194.5,221.5,194.7,222.7z"/>
<path d="M196.9,232.3c-0.2,0.3,0,1.2,0.5,1.9c0.6,0.8,0.8,0.5,0.4-0.6C197.6,232.5,197.1,231.9,196.9,232.3z"/>
<path d="M197,237c-0.2,0.8-0.4,1.9-0.2,2.5c0.2,0.5,0.6,0.3,0.8-0.5c0.2-0.8,0.4-2,0.2-2.5C197.7,235.9,197.3,236.2,197,237z"/>
<path d="M266.4,190.6c1.5,0.2,3.9,0.2,5.5,0c1.5-0.2,0.2-0.4-2.8-0.4S264.8,190.4,266.4,190.6z"/>
<path d="M259.3,193.3c-1.7,1.5-3.4,3.4-3.9,4.4c-0.5,1.1-0.2,0.9,1-0.6c1-1.3,3.2-3.3,4.8-4.3c1.7-1.2,2.6-2.1,2.1-2.1
	C262.8,190.7,261,191.8,259.3,193.3z"/>
<path d="M275,192.1c2,1.3,3.3,1.3,2.5,0c-0.3-0.6-1.4-1-2.3-1C273.7,191.1,273.7,191.3,275,192.1z"/>
<path d="M252.3,201.9c-0.3,0.9-0.6,2.2-0.5,2.8c0,0.7,0.5,0.1,1-1.2s0.8-2.6,0.5-2.8C253.1,200.5,252.7,201,252.3,201.9z"/>
<path d="M251,210.9c0,2.7,0.2,3.8,0.4,2.2c0.2-1.5,0.2-3.7,0-5C251.2,206.9,251,208.1,251,210.9z"/>
<path d="M251.8,219c0,1.1,0.3,1.4,0.6,0.6c0.3-0.7,0.2-1.6-0.1-1.9C252,217.3,251.7,217.9,251.8,219z"/>
<path d="M252.7,221.9c0,0.5,0.5,1.7,1,2.5c0.5,0.8,1,1,1,0.5c0-0.6-0.5-1.7-1-2.5C253.2,221.6,252.7,221.3,252.7,221.9z"/>
<path d="M279.6,193.8c-0.2,0.2,0.5,1.5,1.4,2.8c0.9,1.3,1.6,1.9,1.4,1.2c-0.1-0.6-0.8-1.9-1.4-2.8
	C280.3,194.1,279.8,193.6,279.6,193.8z"/>
<path d="M287.8,196.9c0.2,1.3,0.9,3.5,1.6,5c0.7,1.6,0.6,0.5-0.3-2.2C288.2,196.9,287.6,195.7,287.8,196.9z"/>
<path d="M285.3,207.3c-0.2,0.3,0,1.2,0.5,1.9c0.6,0.8,0.8,0.5,0.4-0.6C285.9,207.5,285.4,206.9,285.3,207.3z"/>
<path d="M286.8,212.4c-0.2,0.8-0.4,1.9-0.2,2.5c0.2,0.5,0.6,0.3,0.8-0.5c0.2-0.8,0.4-2,0.2-2.5C287.4,211.3,287,211.6,286.8,212.4z"
	/>
</svg>
