<?xml version="1.0" standalone="no"?>
<!DOCTYPE svg PUBLIC "-//W3C//DTD SVG 20010904//EN"
 "http://www.w3.org/TR/2001/REC-SVG-20010904/DTD/svg10.dtd">
<svg version="1.0" xmlns="http://www.w3.org/2000/svg"
 width="800.000000pt" height="800.000000pt" viewBox="0 0 800.000000 800.000000"
 preserveAspectRatio="xMidYMid meet">

<g transform="translate(0.000000,800.000000) scale(0.100000,-0.100000)"
fill="#000000" stroke="none">
<path d="M6210 7295 c0 -2 10 -10 23 -16 20 -11 21 -11 8 4 -13 16 -31 23 -31
12z"/>
<path d="M5795 7209 c-306 -41 -441 -78 -630 -171 -61 -30 -137 -65 -170 -77
-33 -13 -105 -47 -160 -75 -86 -44 -116 -67 -229 -176 -128 -124 -226 -244
-305 -372 -50 -83 -114 -210 -130 -259 -8 -26 -17 -36 -29 -34 -9 2 -35 7 -57
10 -32 6 -36 9 -22 16 9 6 17 21 17 35 0 14 6 37 14 52 20 38 37 104 25 96 -5
-3 -25 -37 -44 -75 -20 -38 -39 -69 -43 -69 -4 0 -52 -7 -107 -15 -162 -23
-170 -22 -292 41 -59 32 -139 75 -178 97 -127 72 -159 88 -240 122 -128 53
-290 103 -405 125 -36 7 -96 21 -135 31 -175 46 -470 24 -785 -58 -147 -38
-387 -119 -467 -157 -152 -73 -262 -176 -341 -318 -138 -251 -172 -410 -172
-813 0 -313 20 -477 110 -910 10 -47 50 -206 80 -320 40 -153 45 -165 127
-315 17 -30 48 -84 68 -120 21 -36 59 -105 85 -155 26 -49 61 -112 78 -140 17
-27 39 -66 49 -85 16 -33 97 -149 112 -160 3 -3 12 -14 19 -25 7 -11 21 -33
32 -50 31 -47 56 -161 80 -365 5 -41 13 -104 19 -140 6 -36 10 -90 10 -120 0
-30 3 -66 6 -80 3 -14 15 -74 27 -135 11 -60 26 -113 32 -118 7 -5 4 -14 -11
-26 -13 -11 -23 -22 -23 -26 0 -4 6 -2 14 4 12 10 17 8 25 -8 10 -17 19 -19
78 -16 38 2 91 8 120 13 l51 9 7 -61 c4 -34 13 -99 21 -146 9 -47 19 -110 24
-140 5 -30 21 -125 35 -210 14 -85 30 -182 36 -215 5 -33 18 -107 28 -165 10
-58 17 -106 16 -108 -1 -1 -23 1 -49 4 -44 6 -59 15 -148 84 -33 25 -44 84
-28 154 10 45 9 52 -14 85 -13 20 -42 71 -64 113 -22 43 -42 72 -45 65 -5 -15
51 -127 64 -127 6 0 7 -4 4 -10 -3 -5 0 -20 6 -32 7 -13 16 -69 20 -125 4 -56
12 -110 18 -120 6 -10 11 -15 11 -11 0 3 18 -11 40 -33 21 -21 44 -39 50 -39
15 0 12 -75 -4 -113 -13 -32 -157 -177 -176 -177 -20 0 -9 -15 28 -39 209
-137 492 -291 742 -404 75 -33 245 -97 259 -97 9 0 -29 18 -84 39 -257 98
-526 233 -805 404 -143 88 -139 84 -112 103 87 61 145 133 181 226 9 24 13 26
53 22 24 -3 90 -16 148 -29 58 -13 130 -27 160 -30 30 -4 91 -15 135 -25 84
-20 104 -24 170 -35 22 -3 70 -13 107 -21 62 -13 121 -20 353 -44 78 -8 167
-29 180 -42 12 -12 -18 -188 -31 -188 -16 0 -241 73 -285 93 -19 8 -117 49
-219 90 -182 74 -250 97 -280 97 -15 -1 11 -12 115 -49 50 -18 304 -121 360
-145 31 -14 237 -87 290 -103 30 -8 30 -9 29 -83 -1 -69 -8 -100 -33 -140 -6
-8 -17 -30 -25 -48 -8 -18 -24 -48 -36 -67 -17 -27 -18 -35 -8 -35 8 0 21 12
29 28 7 15 23 43 35 62 12 19 25 50 29 69 4 19 13 41 21 48 16 16 26 1 43 -63
15 -55 49 -131 62 -140 15 -9 23 3 12 18 -9 12 -16 65 -14 98 1 8 1 23 2 32 0
10 4 18 10 18 13 0 11 28 -3 32 -7 3 -13 26 -14 59 -1 30 -3 59 -4 64 -1 6 -2
27 -1 47 1 33 5 40 36 52 20 9 51 18 70 22 19 3 39 12 46 20 9 10 40 14 123
14 87 0 117 4 132 16 10 8 13 12 5 8 -9 -4 -12 -3 -8 3 4 6 33 10 64 9 l58 -1
15 -70 c30 -139 50 -124 50 37 0 160 20 200 108 213 33 5 53 2 83 -13 47 -23
42 -27 114 101 65 115 177 239 275 304 97 65 135 77 250 77 106 1 187 -19 242
-60 18 -13 43 -29 55 -35 11 -6 34 -34 49 -63 15 -28 31 -53 34 -56 7 -5 22
-43 26 -69 2 -8 7 -17 12 -20 5 -3 17 -28 26 -56 18 -50 14 -94 -15 -214 -5
-22 -5 -39 2 -47 6 -7 8 -22 4 -34 -4 -11 -2 -20 4 -20 16 0 13 -26 -3 -39
-11 -10 -15 -8 -19 6 -4 15 -5 14 -6 -4 0 -12 -6 -25 -11 -28 -6 -4 -8 -10 -5
-15 3 -5 -3 -17 -13 -27 -11 -10 -27 -30 -37 -45 -17 -27 -17 -28 3 -28 32 0
36 -19 5 -26 -17 -5 -28 -3 -31 4 -6 19 -30 14 -46 -10 -19 -26 -21 -42 -5
-32 6 3 15 0 20 -7 13 -21 11 -29 -10 -29 -11 0 -23 -4 -26 -10 -3 -5 -1 -10
4 -10 6 0 11 -4 11 -10 0 -5 -20 -10 -45 -10 -25 0 -45 -5 -45 -11 0 -5 -4 -8
-9 -5 -10 7 -71 -25 -71 -36 0 -5 -8 -8 -17 -9 -10 0 -31 -9 -48 -20 -44 -28
-73 -39 -101 -39 -14 0 -40 -7 -60 -15 -19 -8 -37 -14 -39 -15 -3 0 -6 -3 -7
-7 -5 -15 155 -15 163 -1 7 10 9 10 9 1 0 -10 39 -13 163 -13 161 0 162 0 164
23 8 99 31 117 103 81 28 -14 54 -24 56 -21 3 2 -20 16 -51 31 -30 14 -55 28
-55 31 0 3 13 31 29 63 31 62 61 147 82 229 l13 53 100 2 c103 1 137 0 143 -5
1 -2 -6 -30 -18 -62 -17 -49 -39 -141 -80 -344 -5 -24 -11 -46 -13 -48 -2 -2
-34 8 -72 22 -37 14 -65 22 -61 19 8 -8 140 -65 142 -61 3 3 42 174 65 281 34
161 69 214 127 192 9 -4 19 -3 22 2 3 6 39 11 80 13 l73 4 4 -100 c2 -55 11
-149 20 -210 24 -154 25 -146 -21 -172 l-40 -23 64 0 64 0 -7 33 c-33 160 -40
226 -40 382 -1 110 4 189 12 225 71 288 150 422 306 517 47 29 71 37 126 41
128 9 312 -46 394 -118 57 -50 69 -82 74 -198 3 -69 8 -102 16 -99 6 2 12 25
14 50 2 35 8 50 23 58 34 18 78 -7 100 -56 37 -84 51 -408 24 -555 -9 -47 -20
-111 -26 -143 -5 -33 -16 -76 -23 -98 -11 -32 -11 -39 -1 -39 8 0 18 23 26 58
6 31 16 75 22 97 6 22 12 47 13 55 6 56 16 115 20 121 10 17 13 259 3 324 -21
138 -32 186 -51 210 -10 13 -15 25 -11 28 5 2 2 2 -6 0 -7 -2 -20 2 -27 8 -8
6 -30 9 -49 7 -28 -3 -35 -1 -35 14 0 9 6 21 14 25 7 4 16 19 19 33 3 14 26
82 50 152 24 70 47 142 50 160 3 18 8 42 10 53 14 63 29 254 24 307 -13 144
-47 278 -71 278 -9 0 -6 -15 10 -48 32 -65 48 -201 41 -347 -9 -176 -36 -295
-109 -486 -29 -78 -48 -100 -48 -56 0 12 -17 56 -38 97 -46 91 -120 157 -215
188 l-62 20 0 230 -1 229 118 6 c113 6 122 8 188 43 38 21 72 44 75 51 2 8
-10 3 -28 -11 -17 -13 -55 -35 -82 -48 l-50 -23 -598 -3 -597 -3 -184 26
c-101 14 -208 24 -237 22 l-54 -3 60 -2 c33 -1 116 -11 185 -22 69 -11 180
-23 248 -27 137 -7 128 -1 135 -93 3 -33 4 -27 5 23 l2 67 400 0 400 0 -2
-227 -3 -228 -66 3 c-37 2 -69 -1 -73 -6 -3 -5 19 -9 52 -9 150 0 305 -81 361
-187 11 -22 19 -42 16 -44 -2 -3 -20 9 -40 27 -83 72 -232 121 -374 121 -69 0
-91 -4 -134 -25 -177 -89 -270 -235 -337 -529 -12 -53 -24 -95 -26 -93 -8 8
27 233 45 287 10 30 22 71 26 90 29 145 166 288 318 331 43 13 74 25 68 27
-21 7 -154 -39 -190 -66 -107 -78 -176 -171 -211 -285 -29 -94 -57 -230 -66
-318 -7 -79 -13 -89 -57 -89 -30 0 -30 -2 -11 102 5 23 -14 234 -46 508 -5 47
-15 144 -21 215 -6 72 -15 159 -19 195 -7 64 -7 64 -9 15 0 -27 3 -88 9 -135
5 -47 23 -226 41 -399 29 -288 30 -316 15 -326 -21 -16 -21 -26 1 -18 14 6 15
-1 10 -57 -4 -35 -7 -71 -7 -81 0 -19 -4 -20 -233 -39 -200 -16 -189 -21 -190
72 -1 42 -4 75 -8 73 -3 -3 -9 15 -12 39 -11 77 -75 235 -137 334 -25 41 -109
95 -191 122 -84 28 -261 26 -324 -4 -155 -75 -299 -221 -393 -399 -22 -43 -38
-65 -40 -55 -3 17 13 61 49 129 10 20 19 40 19 45 0 15 -31 -36 -64 -102 l-31
-63 -44 19 c-24 11 -56 20 -72 20 l-29 0 -1 113 c-1 61 -5 157 -9 212 l-7 100
-1 -85 c-1 -47 1 -148 4 -225 l7 -140 37 3 c21 2 41 -1 44 -7 5 -7 -2 -11 -17
-11 -89 0 -127 -56 -131 -192 -4 -115 -6 -122 -17 -78 -14 56 -21 208 -9 215
5 3 10 13 10 21 0 13 -3 13 -17 -2 -12 -12 -18 -33 -18 -68 l0 -51 -70 0 c-38
-1 -83 2 -100 6 -16 4 -70 10 -120 13 -49 3 -148 15 -220 26 -71 12 -137 21
-146 21 -15 0 -16 20 -14 192 l4 192 -14 -190 c-7 -104 -13 -190 -14 -191 -1
0 -25 3 -53 7 -29 5 -114 13 -188 20 -110 9 -264 37 -362 65 -15 4 -18 18 -19
77 0 40 -5 95 -9 122 -7 37 -8 20 -5 -66 l4 -116 -42 8 c-413 72 -426 76 -426
106 0 10 -20 126 -44 258 -39 206 -102 585 -121 722 -3 23 -2 44 3 48 23 14
281 38 434 40 l167 2 2 -76 2 -76 3 71 4 72 32 5 c18 3 68 4 112 2 52 -1 68 1
45 5 l-35 7 40 3 c22 1 227 4 455 6 582 7 670 8 670 13 0 2 -7 9 -15 15 -8 6
-22 43 -31 81 -9 39 -19 76 -21 84 -2 9 -14 2 -37 -22 -21 -22 -49 -40 -77
-47 -24 -6 -49 -13 -55 -15 -14 -4 -72 15 -104 35 -14 9 -38 22 -54 30 -45 23
-80 88 -109 202 -34 135 -46 198 -52 283 -3 39 -12 113 -20 166 -8 52 -17 160
-21 240 -4 79 -11 133 -14 119 -8 -33 -2 -221 10 -285 5 -27 12 -86 16 -130 4
-44 8 -82 9 -85 1 -3 5 -49 9 -103 4 -53 12 -97 17 -97 5 0 9 -11 9 -24 0 -13
9 -51 20 -85 11 -34 19 -65 18 -69 -2 -10 22 -62 45 -94 10 -16 16 -32 12 -37
-3 -5 0 -13 6 -17 8 -4 9 -3 5 4 -12 19 3 14 73 -25 82 -46 141 -50 216 -13
28 13 54 24 59 24 5 1 16 -26 25 -59 l17 -61 -110 -2 c-61 0 -178 -6 -259 -11
-81 -6 -154 -8 -161 -5 -7 3 -184 7 -392 9 -208 2 -390 4 -403 4 -13 1 -29 5
-36 11 -6 5 -42 7 -81 4 -178 -12 -335 -5 -342 16 -3 8 -8 8 -17 0 -9 -8 -14
-6 -19 5 -6 17 -36 21 -36 5 0 -5 -5 -10 -11 -10 -5 0 -7 5 -4 10 3 6 -3 10
-14 10 -10 0 -22 -6 -24 -12 -4 -10 -6 -10 -6 0 -1 6 -7 12 -14 12 -9 0 -14
13 -15 36 -2 38 -12 58 -19 37 -3 -8 -10 -9 -21 -3 -9 5 -25 11 -35 14 -13 4
-17 12 -12 26 3 11 2 20 -3 20 -6 0 -12 -5 -14 -10 -2 -6 -16 -8 -35 -4 -29 6
-31 8 -26 40 4 22 2 34 -6 34 -7 0 -9 9 -5 25 5 20 1 26 -19 34 -19 7 -28 20
-32 45 -4 19 -15 43 -24 53 -11 12 -18 38 -20 78 -1 33 -7 65 -12 72 -6 6 -10
31 -9 55 0 23 -4 79 -10 123 -18 130 -14 155 22 155 18 0 20 4 15 35 -3 19 -2
35 4 35 5 0 9 7 9 15 0 8 -5 15 -10 15 -7 0 -7 7 0 21 7 11 9 23 6 26 -3 3 -8
-2 -12 -11 -3 -9 -12 -16 -20 -16 -17 0 -18 16 -1 24 9 5 9 7 0 12 -8 3 -11
15 -7 28 6 24 -57 116 -79 116 -7 0 -21 14 -31 31 -14 24 -24 30 -41 27 -18
-4 -24 0 -28 19 -3 19 -2 21 9 12 22 -18 16 6 -6 26 -12 11 -20 13 -20 6 0 -9
-4 -8 -14 1 -8 7 -12 16 -9 21 10 16 -8 26 -32 17 -15 -6 -27 -6 -30 0 -6 9 8
14 28 11 21 -4 -1 35 -27 48 -16 7 -30 21 -33 30 -2 9 -18 22 -35 29 -23 8
-28 15 -23 30 3 12 -3 34 -15 53 -11 19 -23 41 -27 49 -4 8 -14 20 -22 27 -11
9 -12 12 -3 13 8 0 6 8 -7 22 -12 12 -23 30 -27 40 -3 10 -10 18 -15 18 -5 0
-9 6 -9 13 0 6 -12 38 -27 70 -24 48 -32 56 -51 53 -29 -4 -41 14 -13 21 28 7
27 19 -4 39 -14 9 -25 24 -26 33 0 9 -3 11 -5 4 -3 -6 3 -24 13 -39 13 -20 14
-26 3 -22 -18 6 -32 48 -85 253 -49 190 -93 408 -126 625 -20 124 -23 186 -23
435 -1 400 17 510 122 725 64 133 103 190 175 261 107 105 225 163 507 252
266 83 465 119 655 118 175 -1 311 -18 342 -43 7 -5 17 -7 22 -4 5 4 43 -1 83
-10 40 -9 79 -17 86 -17 16 0 16 -14 0 -21 -10 -4 -10 -8 -2 -11 7 -3 9 -16 6
-27 -4 -16 -2 -20 10 -15 9 3 21 0 27 -6 8 -8 17 -3 35 18 24 28 25 28 70 15
43 -12 71 -30 47 -30 -6 0 -11 -7 -11 -15 0 -8 -4 -15 -10 -15 -5 0 -10 4 -10
9 0 5 -16 9 -35 9 -43 0 -37 -15 10 -24 19 -3 35 -10 35 -15 0 -5 7 -9 16 -9
8 0 13 4 10 9 -3 4 1 17 9 27 12 16 14 17 15 3 0 -9 7 -22 15 -29 13 -11 13
-15 3 -22 -8 -5 -2 -7 18 -6 51 3 118 -32 83 -44 -7 -2 -1 -11 12 -19 31 -19
107 -42 118 -34 5 3 11 0 13 -6 2 -7 12 -7 31 2 31 14 46 6 28 -14 -7 -9 -22
-12 -39 -9 -26 5 -26 4 -9 -15 9 -11 17 -23 17 -27 0 -31 92 -73 133 -60 13 4
20 0 24 -15 3 -11 10 -18 16 -14 6 4 7 1 2 -6 -4 -7 -15 -11 -25 -8 -11 3 -21
-1 -24 -10 -3 -7 -20 -20 -38 -28 -20 -8 -26 -14 -15 -15 10 0 49 16 87 35 71
36 135 54 283 80 103 18 142 19 156 1 14 -16 -12 -26 -74 -26 -86 0 -325 -54
-400 -91 -22 -11 -31 -16 -20 -13 209 64 386 95 525 93 102 -2 105 -1 115 22
63 149 158 311 262 449 51 68 231 247 294 294 77 57 319 176 575 282 150 63
444 116 649 118 119 1 122 1 190 -34 38 -19 102 -61 140 -92 76 -61 292 -284
397 -411 56 -67 156 -234 167 -277 1 -8 9 -22 16 -30 29 -34 118 -296 144
-423 33 -161 40 -201 36 -205 -3 -3 1 -12 8 -20 17 -22 18 -1112 0 -1134 -8
-9 -9 -18 -3 -24 6 -6 4 -20 -6 -39 -10 -19 -11 -31 -5 -33 6 -2 11 -11 11
-20 0 -13 -2 -14 -8 -4 -7 10 -13 8 -30 -6 -12 -11 -22 -26 -22 -33 0 -11 2
-11 10 1 5 8 10 11 10 6 0 -5 7 -3 15 4 12 10 15 10 15 -4 0 -9 -7 -16 -15
-16 -18 0 -38 -46 -30 -67 3 -11 -1 -13 -15 -8 -11 4 -20 3 -21 -2 -6 -85 -36
-163 -74 -189 -11 -8 -20 -18 -19 -22 1 -4 -10 -24 -22 -44 -13 -21 -24 -48
-24 -61 0 -13 -5 -28 -10 -33 -6 -6 -12 -32 -13 -57 -1 -30 -7 -47 -14 -47
-18 0 -16 -19 2 -26 11 -5 13 -10 5 -19 -8 -9 -8 -15 0 -20 5 -3 10 -21 10
-40 0 -25 5 -35 20 -40 11 -3 20 -12 20 -20 0 -7 6 -16 13 -18 7 -4 6 -6 -5
-6 -15 -1 -15 -5 3 -56 10 -30 19 -70 19 -89 0 -19 4 -37 9 -40 5 -3 14 -36
20 -73 7 -38 14 -78 17 -91 4 -21 2 -23 -18 -17 l-23 7 23 -21 c20 -20 21 -24
8 -43 -11 -15 -12 -27 -4 -49 5 -16 7 -36 4 -45 -4 -11 0 -14 16 -12 15 2 24
-3 26 -14 2 -11 -5 -18 -22 -20 -19 -2 -23 -7 -17 -17 7 -10 13 -11 30 -2 18
10 21 9 21 -9 0 -11 5 -20 12 -20 6 0 1 -8 -10 -19 -25 -21 -30 -40 -6 -21 30
26 44 -6 96 -230 11 -51 21 -138 24 -215 4 -114 3 -131 -12 -142 -14 -10 -15
-15 -4 -28 13 -15 14 -14 -35 -30 -10 -3 -15 -17 -15 -40 0 -36 13 -47 24 -20
9 25 21 17 23 -15 1 -17 -3 -30 -9 -30 -9 0 -9 -3 0 -12 15 -15 16 -31 0 -22
-8 5 -9 0 -5 -17 7 -28 -12 -101 -25 -93 -4 3 -8 17 -7 32 1 15 -1 34 -5 43
-4 10 -3 20 3 24 7 4 11 -3 11 -16 0 -12 3 -20 6 -16 10 10 -7 68 -19 64 -6
-2 -16 -22 -22 -44 -9 -36 -90 -153 -106 -153 -3 0 -18 -12 -33 -27 -24 -24
-140 -73 -171 -73 -9 0 -12 35 -13 118 -1 155 -27 390 -51 477 -11 38 -18 71
-16 73 2 2 27 -1 55 -7 75 -16 95 -14 128 14 21 18 32 39 39 72 17 95 -24 343
-106 638 -123 444 -191 616 -348 883 -31 53 -62 103 -69 109 -7 7 -22 29 -35
50 -13 21 -48 69 -78 107 -31 38 -65 80 -76 95 -10 14 -30 36 -43 49 -12 12
-21 22 -18 22 3 0 -19 24 -47 54 -32 33 -87 72 -140 101 l-86 46 -97 -6 c-53
-3 -110 -13 -125 -20 -27 -14 -80 -75 -86 -99 -1 -6 -10 -36 -19 -66 -8 -30
-17 -95 -18 -145 l-2 -90 -120 -12 c-114 -11 -170 -21 -369 -64 -96 -20 -271
-40 -291 -32 -7 2 -15 0 -19 -6 -3 -6 -23 -11 -43 -11 -34 1 -35 2 -18 15 10
7 15 18 11 24 -9 15 -25 14 -25 -2 0 -19 -37 -47 -64 -47 -27 0 -46 19 -49 49
0 11 -4 18 -8 15 -4 -2 -13 4 -20 13 -11 13 -11 17 -1 20 6 3 12 9 12 14 0 4
-7 6 -16 2 -10 -4 -20 0 -26 10 -5 10 -16 17 -24 17 -8 0 -12 5 -9 10 3 6 2
10 -4 10 -18 0 -71 52 -64 63 3 7 2 9 -2 4 -5 -4 -15 -1 -24 6 -38 32 -116 52
-211 53 -66 1 -104 6 -124 17 -27 15 -31 15 -42 -1 -15 -20 -9 -31 8 -14 17
17 25 15 31 -9 5 -17 -3 -24 -41 -40 -49 -20 -103 -48 -112 -58 -30 -34 -80
-72 -75 -58 4 10 2 17 -4 17 -6 0 -11 -9 -11 -20 0 -11 5 -20 10 -20 6 0 -5
-21 -22 -48 -54 -78 -80 -142 -118 -287 -49 -186 -95 -494 -101 -660 -2 -95 1
-279 5 -274 2 2 7 83 11 179 11 276 10 269 41 455 20 122 46 237 79 359 27 96
75 200 117 249 16 17 28 36 28 40 0 18 58 61 118 88 224 102 326 91 475 -51
43 -41 92 -99 109 -127 24 -43 34 -52 51 -49 47 10 157 25 257 36 58 7 150 21
205 32 55 11 121 24 147 28 27 5 52 11 57 14 5 3 55 8 112 12 57 3 119 9 138
14 22 6 39 6 47 -1 19 -16 24 4 12 44 -17 57 5 218 40 286 36 72 77 93 190 99
73 4 90 1 135 -19 29 -13 54 -27 55 -31 2 -5 9 -8 16 -8 13 0 55 -39 151 -141
201 -212 403 -536 508 -814 58 -153 153 -474 187 -630 5 -22 16 -59 24 -83 8
-23 21 -89 27 -145 6 -56 15 -129 18 -162 9 -76 -1 -131 -28 -158 -19 -20 -25
-20 -93 -10 -40 7 -83 15 -95 18 -21 7 -22 5 -12 -26 35 -112 48 -178 59 -289
16 -152 21 -352 10 -440 -10 -87 -7 -93 44 -86 55 8 186 19 211 18 36 -1 65 8
65 20 0 7 14 27 32 45 36 37 69 145 93 303 20 130 19 411 -1 515 -8 44 -22
116 -30 160 -7 44 -16 86 -20 95 -3 8 -8 24 -10 35 -10 62 -36 165 -48 196 -8
20 -12 39 -9 43 3 3 1 11 -5 18 -21 27 -37 193 -37 388 1 158 25 288 76 405
16 37 47 179 53 240 3 33 10 85 16 115 6 30 11 98 11 150 2 772 0 1132 -9
1143 -5 6 -12 39 -16 72 -4 33 -9 69 -11 80 -12 75 -19 105 -32 140 -8 22 -23
76 -34 120 -12 43 -27 92 -35 107 -8 15 -14 30 -14 33 1 7 -47 101 -105 210
-72 134 -180 262 -427 507 -105 104 -187 166 -274 204 -47 21 -69 24 -162 23
-59 -1 -134 -5 -167 -10z m-2812 -806 c-4 -9 -10 -10 -24 -2 -25 13 -24 17 5
15 14 0 22 -6 19 -13z m373 -151 c-7 -6 -56 18 -56 27 0 6 13 2 29 -7 16 -9
28 -18 27 -20z m59 -40 c-3 -3 -11 0 -18 7 -9 10 -8 11 6 5 10 -3 15 -9 12
-12z m145 -94 c0 -5 -11 -8 -25 -8 -14 0 -25 3 -25 8 0 4 11 7 25 7 14 0 25
-3 25 -7z m3420 -1884 c0 -14 -4 -23 -9 -20 -5 3 -7 15 -4 26 7 28 13 25 13
-6z m-80 -591 c0 -5 -5 -15 -10 -23 -8 -12 -10 -11 -10 8 0 12 5 22 10 22 6 0
10 -3 10 -7z m27 -435 c-3 -8 -6 -5 -6 6 -1 11 2 17 5 13 3 -3 4 -12 1 -19z
m-5294 -32 c4 -10 1 -13 -8 -9 -8 3 -12 9 -9 14 7 12 11 11 17 -5z m107 -110
c0 -3 -4 -8 -10 -11 -5 -3 -10 -1 -10 4 0 6 5 11 10 11 6 0 10 -2 10 -4z m40
-142 c0 -9 -7 -14 -17 -12 -25 5 -28 28 -4 28 12 0 21 -6 21 -16z m70 -684 c0
-5 -2 -10 -4 -10 -3 0 -8 5 -11 10 -3 6 -1 10 4 10 6 0 11 -4 11 -10z m5137
-132 c-3 -8 -6 -5 -6 6 -1 11 2 17 5 13 3 -3 4 -12 1 -19z m-27 -18 c0 -5 -5
-10 -11 -10 -5 0 -7 5 -4 10 3 6 8 10 11 10 2 0 4 -4 4 -10z m70 -6 c0 -8 -5
-12 -10 -9 -6 4 -8 11 -5 16 9 14 15 11 15 -7z m-1581 -1446 c-1 -24 -3 -27
-6 -10 -2 12 -9 22 -14 22 -6 0 -7 5 -4 10 13 21 25 9 24 -22z m-1822 -174
c-3 -3 -12 -4 -19 -1 -8 3 -5 6 6 6 11 1 17 -2 13 -5z m1628 -323 c7 -12 -12
-24 -25 -16 -11 7 -4 25 10 25 5 0 11 -4 15 -9z"/>
<path d="M5075 7114 c-123 -53 -411 -207 -397 -212 9 -3 94 38 142 67 66 42
200 109 270 137 47 18 76 33 65 33 -11 1 -47 -11 -80 -25z"/>
<path d="M6480 7014 c0 -3 16 -22 36 -42 l37 -37 -32 43 c-31 40 -41 49 -41
36z"/>
<path d="M6230 6520 c0 -5 5 -10 10 -10 6 0 10 5 10 10 0 6 -4 10 -10 10 -5 0
-10 -4 -10 -10z"/>
<path d="M5928 6515 c-3 -3 -50 -11 -104 -16 -160 -16 -290 -57 -494 -156
-115 -55 -226 -138 -310 -230 -19 -21 -38 -37 -42 -36 -4 2 -14 -12 -21 -30
-8 -18 -21 -39 -28 -47 -20 -21 -62 -90 -54 -90 3 0 1 -9 -5 -21 -7 -11 -9
-31 -6 -43 5 -19 11 -21 41 -18 43 5 128 -19 205 -59 119 -60 213 -100 228
-96 13 3 11 6 -9 14 -14 6 -61 28 -105 48 -43 21 -106 50 -139 65 -33 16 -86
37 -117 47 -62 19 -66 27 -44 76 8 18 17 43 20 57 3 14 32 54 65 90 33 36 60
68 61 73 0 4 4 7 9 7 5 0 35 25 68 55 65 61 279 174 417 220 218 72 513 89
559 32 153 -191 268 -492 327 -854 21 -129 14 -373 -14 -535 -14 -79 -28 -179
-32 -222 -3 -44 -10 -90 -14 -102 -5 -12 -6 -25 -3 -28 4 -3 4 -6 1 -6 -3 0
-32 45 -63 100 -31 55 -61 100 -66 100 -5 0 -17 17 -28 38 -11 21 -88 104
-173 184 -142 136 -175 166 -298 266 -24 20 -56 49 -69 65 -14 15 -30 27 -35
27 -5 0 -27 15 -50 33 -60 49 -129 94 -185 122 -64 32 -78 32 -23 -1 23 -14
42 -29 42 -34 0 -5 6 -7 13 -4 7 2 21 -2 32 -11 36 -28 89 -64 134 -92 24 -16
49 -34 55 -41 6 -7 22 -23 35 -35 14 -12 34 -31 46 -42 12 -11 37 -32 56 -46
34 -27 131 -118 293 -277 94 -92 150 -164 138 -177 -4 -5 -1 -5 6 -1 6 4 12 2
12 -4 0 -6 11 -26 25 -44 14 -18 25 -36 25 -39 0 -4 16 -31 37 -61 38 -57 59
-63 61 -18 1 33 29 257 36 292 36 171 48 432 26 565 -5 33 -12 78 -15 100 -13
80 -58 271 -71 302 -8 17 -14 36 -14 41 0 6 -9 32 -20 58 -16 37 -18 49 -8 56
10 6 9 8 -2 8 -18 0 -45 64 -34 81 4 8 3 9 -5 5 -7 -5 -17 5 -26 26 -9 18 -21
42 -28 52 -49 77 -66 110 -60 119 3 6 2 7 -4 4 -14 -9 -57 39 -48 53 12 19
-11 27 -88 29 -40 1 -81 4 -92 7 -11 3 -23 2 -27 -1z"/>
<path d="M2820 6420 c0 -5 14 -10 32 -10 36 0 35 4 -4 14 -17 4 -28 2 -28 -4z"/>
<path d="M4935 6240 c3 -5 8 -10 11 -10 2 0 4 5 4 10 0 6 -5 10 -11 10 -5 0
-7 -4 -4 -10z"/>
<path d="M1044 6170 c-57 -43 -85 -84 -36 -53 28 19 103 93 93 93 -3 0 -29
-18 -57 -40z"/>
<path d="M4880 6150 c0 -5 5 -10 11 -10 5 0 7 5 4 10 -3 6 -8 10 -11 10 -2 0
-4 -4 -4 -10z"/>
<path d="M3496 6012 c-3 -6 -1 -14 5 -17 15 -10 25 3 12 16 -7 7 -13 7 -17 1z"/>
<path d="M2050 5856 c-191 -26 -303 -57 -410 -113 -95 -49 -115 -72 -134 -148
-27 -106 -30 -224 -11 -425 37 -415 130 -700 321 -984 47 -70 149 -211 199
-276 19 -25 38 -52 42 -60 14 -29 76 -90 93 -90 18 0 31 22 51 85 14 43 15 49
17 82 1 12 9 28 17 37 8 8 11 17 6 20 -14 9 28 174 82 319 7 20 17 34 22 30 4
-5 5 -3 1 4 -6 10 34 106 63 153 5 8 29 49 52 90 24 41 48 83 54 92 17 28 74
112 85 125 5 7 10 15 10 19 0 3 16 28 35 54 19 26 35 50 35 53 0 12 62 97 71
97 5 0 9 5 9 11 0 31 182 249 207 249 7 0 12 3 12 8 -1 4 -1 12 0 19 1 16 82
116 88 110 2 -3 13 2 23 10 49 41 80 72 80 80 0 18 -41 53 -62 53 -18 0 -127
66 -148 89 -7 8 -42 30 -60 38 -8 3 -26 14 -40 23 -32 22 -161 64 -265 85 -44
10 -116 26 -160 37 -138 34 -256 41 -385 24z m327 -31 c433 -91 473 -107 654
-253 35 -29 60 -42 74 -39 18 3 21 -1 19 -19 -3 -32 -10 -41 -55 -74 -21 -15
-59 -55 -84 -89 -25 -34 -65 -80 -88 -104 -49 -48 -157 -190 -157 -206 0 -6
-4 -11 -9 -11 -5 0 -28 -33 -52 -72 -23 -40 -50 -82 -59 -93 -9 -11 -32 -45
-50 -75 -18 -30 -36 -57 -41 -60 -4 -3 -19 -28 -33 -55 -15 -28 -32 -59 -39
-70 -7 -11 -26 -42 -43 -70 -86 -139 -146 -300 -198 -532 -47 -212 -48 -213
-70 -213 -13 0 -31 15 -46 37 -14 19 -35 46 -47 58 -13 12 -23 26 -23 30 0 7
-66 99 -115 160 -87 109 -207 313 -256 437 -31 78 -89 266 -99 318 -4 25 -13
70 -19 100 -52 264 -50 651 4 736 16 25 167 101 239 120 48 13 211 48 266 57
78 13 216 5 327 -18z"/>
<path d="M4395 5610 c3 -5 13 -10 21 -10 8 0 12 5 9 10 -3 6 -13 10 -21 10 -8
0 -12 -4 -9 -10z"/>
<path d="M3515 5460 c-3 -5 -1 -10 4 -10 6 0 11 5 11 10 0 6 -2 10 -4 10 -3 0
-8 -4 -11 -10z"/>
<path d="M3260 5411 c0 -5 5 -13 10 -16 6 -3 10 -2 10 4 0 5 -4 13 -10 16 -5
3 -10 2 -10 -4z"/>
<path d="M3315 5330 c-3 -5 -2 -10 4 -10 5 0 13 5 16 10 3 6 2 10 -4 10 -5 0
-13 -4 -16 -10z"/>
<path d="M5890 5010 c0 -5 5 -10 11 -10 5 0 7 5 4 10 -3 6 -8 10 -11 10 -2 0
-4 -4 -4 -10z"/>
<path d="M5890 4958 c1 -19 27 -51 34 -40 9 14 -5 52 -20 52 -8 0 -14 -6 -14
-12z"/>
<path d="M6110 4940 c0 -5 5 -10 10 -10 6 0 10 5 10 10 0 6 -4 10 -10 10 -5 0
-10 -4 -10 -10z"/>
<path d="M3000 4929 c0 -5 5 -7 10 -4 6 3 10 8 10 11 0 2 -4 4 -10 4 -5 0 -10
-5 -10 -11z"/>
<path d="M3585 4920 c3 -5 13 -10 21 -10 8 0 12 5 9 10 -3 6 -13 10 -21 10 -8
0 -12 -4 -9 -10z"/>
<path d="M5990 4914 c0 -8 5 -12 10 -9 6 4 8 11 5 16 -9 14 -15 11 -15 -7z"/>
<path d="M6060 4910 c0 -5 6 -10 14 -10 8 0 18 5 21 10 3 6 -3 10 -14 10 -12
0 -21 -4 -21 -10z"/>
<path d="M4224 4886 c-10 -8 -16 -17 -13 -20 3 -3 14 3 24 14 21 23 17 26 -11
6z"/>
<path d="M6128 4883 c7 -3 16 -2 19 1 4 3 -2 6 -13 5 -11 0 -14 -3 -6 -6z"/>
<path d="M3021 4871 c-8 -6 -9 -11 -3 -15 6 -3 14 -1 17 5 9 14 2 20 -14 10z"/>
<path d="M3660 4870 c0 -5 5 -10 10 -10 6 0 10 5 10 10 0 6 -4 10 -10 10 -5 0
-10 -4 -10 -10z"/>
<path d="M5957 4873 c-4 -3 -7 -11 -7 -17 0 -6 5 -5 12 2 6 6 9 14 7 17 -3 3
-9 2 -12 -2z"/>
<path d="M2950 4849 c0 -5 5 -7 10 -4 6 3 10 8 10 11 0 2 -4 4 -10 4 -5 0 -10
-5 -10 -11z"/>
<path d="M4508 4853 c7 -3 16 -2 19 1 4 3 -2 6 -13 5 -11 0 -14 -3 -6 -6z"/>
<path d="M4404 4839 c-3 -6 -1 -16 5 -22 8 -8 11 -5 11 11 0 24 -5 28 -16 11z"/>
<path d="M5905 4840 c-3 -5 3 -10 15 -10 12 0 18 5 15 10 -3 6 -10 10 -15 10
-5 0 -12 -4 -15 -10z"/>
<path d="M6071 4834 c0 -11 3 -14 6 -6 3 7 2 16 -1 19 -3 4 -6 -2 -5 -13z"/>
<path d="M2785 4830 c-3 -5 1 -10 9 -10 9 0 16 5 16 10 0 6 -4 10 -9 10 -6 0
-13 -4 -16 -10z"/>
<path d="M3603 4833 c-15 -5 -17 -23 -4 -23 5 0 11 7 15 15 3 8 4 15 3 14 -1
0 -8 -3 -14 -6z"/>
<path d="M6161 4804 c-1 -16 47 -65 54 -55 3 5 1 12 -5 16 -6 4 -8 11 -5 16 4
5 -3 9 -14 9 -10 0 -22 6 -24 13 -3 7 -6 7 -6 1z"/>
<path d="M4328 4781 c12 -10 22 -24 22 -32 0 -10 3 -10 12 -1 9 9 7 16 -7 32
-10 11 -25 20 -33 20 -11 0 -9 -5 6 -19z"/>
<path d="M2780 4780 c0 -5 5 -10 10 -10 6 0 10 5 10 10 0 6 -4 10 -10 10 -5 0
-10 -4 -10 -10z"/>
<path d="M3890 4780 c0 -5 5 -10 10 -10 6 0 10 5 10 10 0 6 -4 10 -10 10 -5 0
-10 -4 -10 -10z"/>
<path d="M4210 4780 c0 -5 5 -10 10 -10 6 0 10 5 10 10 0 6 -4 10 -10 10 -5 0
-10 -4 -10 -10z"/>
<path d="M3947 4763 c-12 -11 -8 -23 8 -23 8 0 15 7 15 15 0 16 -12 20 -23 8z"/>
<path d="M4413 4760 c4 -17 47 -27 47 -11 0 6 -7 8 -16 4 -9 -3 -20 0 -26 8
-8 12 -9 11 -5 -1z"/>
<path d="M4255 4730 c-3 -5 1 -10 10 -10 9 0 13 5 10 10 -3 6 -8 10 -10 10 -2
0 -7 -4 -10 -10z"/>
<path d="M4045 4720 c3 -5 10 -10 16 -10 5 0 9 5 9 10 0 6 -7 10 -16 10 -8 0
-12 -4 -9 -10z"/>
<path d="M4449 4714 c-11 -14 -9 -15 16 -12 16 1 30 9 33 16 6 18 -33 15 -49
-4z"/>
<path d="M4302 4700 c-7 -11 -10 -20 -6 -20 7 0 34 27 34 34 0 13 -16 5 -28
-14z"/>
<path d="M3580 4700 c0 -5 5 -10 10 -10 6 0 10 5 10 10 0 6 -4 10 -10 10 -5 0
-10 -4 -10 -10z"/>
<path d="M2690 4692 c0 -12 19 -26 26 -19 2 2 -2 10 -11 17 -9 8 -15 8 -15 2z"/>
<path d="M4250 4690 c0 -5 5 -10 11 -10 5 0 7 5 4 10 -3 6 -8 10 -11 10 -2 0
-4 -4 -4 -10z"/>
<path d="M4000 4660 c0 -5 5 -10 11 -10 5 0 7 5 4 10 -3 6 -8 10 -11 10 -2 0
-4 -4 -4 -10z"/>
<path d="M4208 4658 c5 -5 16 -8 23 -6 8 3 3 7 -10 11 -17 4 -21 3 -13 -5z"/>
<path d="M4670 4659 c0 -5 5 -7 10 -4 6 3 10 8 10 11 0 2 -4 4 -10 4 -5 0 -10
-5 -10 -11z"/>
<path d="M3080 4645 c-10 -12 -10 -15 4 -15 9 0 16 7 16 15 0 8 -2 15 -4 15
-2 0 -9 -7 -16 -15z"/>
<path d="M4471 4644 c0 -11 3 -14 6 -6 3 7 2 16 -1 19 -3 4 -6 -2 -5 -13z"/>
<path d="M4720 4650 c0 -5 5 -10 11 -10 5 0 7 5 4 10 -3 6 -8 10 -11 10 -2 0
-4 -4 -4 -10z"/>
<path d="M4340 4640 c0 -5 5 -10 10 -10 6 0 10 5 10 10 0 6 -4 10 -10 10 -5 0
-10 -4 -10 -10z"/>
<path d="M3468 4633 c7 -3 16 -2 19 1 4 3 -2 6 -13 5 -11 0 -14 -3 -6 -6z"/>
<path d="M3835 4631 c-3 -5 -1 -12 5 -16 5 -3 10 1 10 9 0 18 -6 21 -15 7z"/>
<path d="M3680 4610 c0 -5 5 -10 10 -10 6 0 10 5 10 10 0 6 -4 10 -10 10 -5 0
-10 -4 -10 -10z"/>
<path d="M3260 4590 c0 -5 5 -10 11 -10 5 0 7 5 4 10 -3 6 -8 10 -11 10 -2 0
-4 -4 -4 -10z"/>
<path d="M4398 4593 c6 -2 18 -2 25 0 6 3 1 5 -13 5 -14 0 -19 -2 -12 -5z"/>
<path d="M3700 4580 c0 -11 39 -20 45 -10 3 4 -6 10 -20 12 -14 3 -25 2 -25
-2z"/>
<path d="M3528 4573 c7 -3 16 -2 19 1 4 3 -2 6 -13 5 -11 0 -14 -3 -6 -6z"/>
<path d="M3285 4560 c-3 -5 -1 -10 4 -10 6 0 11 5 11 10 0 6 -2 10 -4 10 -3 0
-8 -4 -11 -10z"/>
<path d="M4410 4545 c0 -9 6 -12 15 -9 8 4 12 10 9 15 -8 14 -24 10 -24 -6z"/>
<path d="M3714 4528 c-3 -5 -3 -12 1 -16 4 -4 10 -2 12 4 2 7 13 10 23 7 11
-3 20 -1 20 3 0 12 -49 14 -56 2z"/>
<path d="M7020 4530 c0 -5 5 -10 11 -10 5 0 7 5 4 10 -3 6 -8 10 -11 10 -2 0
-4 -4 -4 -10z"/>
<path d="M3655 4520 c-3 -5 -2 -10 4 -10 5 0 13 5 16 10 3 6 2 10 -4 10 -5 0
-13 -4 -16 -10z"/>
<path d="M3040 4475 c7 -8 17 -12 22 -9 6 4 5 10 -3 15 -22 14 -33 10 -19 -6z"/>
<path d="M3135 4440 c-3 -5 -1 -10 4 -10 6 0 11 5 11 10 0 6 -2 10 -4 10 -3 0
-8 -4 -11 -10z"/>
<path d="M3570 4432 c0 -5 7 -9 15 -9 8 0 12 4 9 9 -3 4 -9 8 -15 8 -5 0 -9
-4 -9 -8z"/>
<path d="M4491 4416 c-8 -10 -3 -11 19 -8 35 5 37 8 10 15 -10 3 -24 -1 -29
-7z"/>
<path d="M3376 4413 c-10 -10 31 -33 48 -27 10 4 16 1 16 -8 0 -18 37 -41 46
-27 3 6 -4 13 -16 16 -16 4 -20 11 -16 27 5 19 1 22 -33 23 -21 1 -42 -1 -45
-4z"/>
<path d="M2465 4330 c-3 -5 -1 -10 4 -10 6 0 11 5 11 10 0 6 -2 10 -4 10 -3 0
-8 -4 -11 -10z"/>
<path d="M2556 4261 c-4 -5 -2 -12 3 -15 5 -4 12 -2 15 3 4 5 2 12 -3 15 -5 4
-12 2 -15 -3z"/>
<path d="M2456 4245 c4 -8 10 -12 15 -9 14 8 10 24 -6 24 -9 0 -12 -6 -9 -15z"/>
<path d="M2835 4240 c-3 -5 -1 -10 4 -10 6 0 11 5 11 10 0 6 -2 10 -4 10 -3 0
-8 -4 -11 -10z"/>
<path d="M2698 4223 c7 -3 16 -2 19 1 4 3 -2 6 -13 5 -11 0 -14 -3 -6 -6z"/>
<path d="M3170 4189 c0 -5 5 -7 10 -4 6 3 10 8 10 11 0 2 -4 4 -10 4 -5 0 -10
-5 -10 -11z"/>
<path d="M2625 4179 c-4 -6 -14 -8 -22 -5 -9 4 -13 1 -11 -6 8 -22 36 -20 48
1 11 22 -3 31 -15 10z"/>
<path d="M2420 4157 c0 -8 7 -17 15 -21 8 -3 15 -3 15 0 0 3 -7 12 -15 20 -13
13 -15 13 -15 1z"/>
<path d="M3225 4160 c-3 -5 -2 -10 4 -10 5 0 13 5 16 10 3 6 2 10 -4 10 -5 0
-13 -4 -16 -10z"/>
<path d="M2976 4145 c4 -8 10 -15 15 -15 5 0 9 7 9 15 0 8 -7 15 -15 15 -9 0
-12 -6 -9 -15z"/>
<path d="M3505 4150 c-3 -5 -1 -10 4 -10 6 0 11 5 11 10 0 6 -2 10 -4 10 -3 0
-8 -4 -11 -10z"/>
<path d="M2788 4143 c7 -3 16 -2 19 1 4 3 -2 6 -13 5 -11 0 -14 -3 -6 -6z"/>
<path d="M3030 4129 c0 -5 5 -7 10 -4 6 3 10 8 10 11 0 2 -4 4 -10 4 -5 0 -10
-5 -10 -11z"/>
<path d="M2770 4110 c0 -5 5 -10 11 -10 5 0 7 5 4 10 -3 6 -8 10 -11 10 -2 0
-4 -4 -4 -10z"/>
<path d="M3225 4101 c-6 -11 9 -23 19 -14 9 9 7 23 -3 23 -6 0 -12 -4 -16 -9z"/>
<path d="M2730 4065 c-7 -9 -10 -18 -7 -22 8 -7 37 15 37 28 0 14 -16 11 -30
-6z"/>
<path d="M2640 3980 c0 -5 5 -10 10 -10 6 0 10 5 10 10 0 6 -4 10 -10 10 -5 0
-10 -4 -10 -10z"/>
<path d="M2825 3980 c3 -5 10 -10 16 -10 5 0 9 5 9 10 0 6 -7 10 -16 10 -8 0
-12 -4 -9 -10z"/>
<path d="M3345 3980 c3 -5 10 -10 16 -10 5 0 9 5 9 10 0 6 -7 10 -16 10 -8 0
-12 -4 -9 -10z"/>
<path d="M2290 3926 c0 -2 7 -7 16 -10 8 -3 12 -2 9 4 -6 10 -25 14 -25 6z"/>
<path d="M2820 3919 c0 -5 5 -7 10 -4 6 3 10 8 10 11 0 2 -4 4 -10 4 -5 0 -10
-5 -10 -11z"/>
<path d="M1160 3900 c0 -5 5 -10 11 -10 5 0 7 5 4 10 -3 6 -8 10 -11 10 -2 0
-4 -4 -4 -10z"/>
<path d="M2565 3900 c-3 -6 1 -7 9 -4 18 7 21 14 7 14 -6 0 -13 -4 -16 -10z"/>
<path d="M2740 3890 c0 -5 5 -10 11 -10 5 0 7 5 4 10 -3 6 -8 10 -11 10 -2 0
-4 -4 -4 -10z"/>
<path d="M1930 3795 c0 -8 5 -15 10 -15 6 0 10 7 10 15 0 8 -4 15 -10 15 -5 0
-10 -7 -10 -15z"/>
<path d="M2905 3590 c3 -5 17 -10 31 -10 13 0 24 5 24 10 0 6 -14 10 -31 10
-17 0 -28 -4 -24 -10z"/>
<path d="M3150 3591 c0 -6 5 -13 10 -16 6 -3 10 1 10 9 0 9 -4 16 -10 16 -5 0
-10 -4 -10 -9z"/>
<path d="M6875 3390 c3 -5 10 -10 16 -10 5 0 9 5 9 10 0 6 -7 10 -16 10 -8 0
-12 -4 -9 -10z"/>
<path d="M6510 3138 c1 -13 7 -36 14 -53 12 -26 15 -28 21 -12 4 11 3 23 -4
30 -6 6 -11 19 -11 28 0 10 -4 21 -10 24 -6 3 -10 -4 -10 -17z"/>
<path d="M4444 3061 c3 -4 18 -11 33 -14 16 -3 36 -9 46 -12 9 -4 17 -3 17 2
0 6 -17 15 -39 21 -46 14 -64 15 -57 3z"/>
<path d="M6902 3029 c2 -6 8 -10 13 -10 5 0 11 4 13 10 2 6 -4 11 -13 11 -9 0
-15 -5 -13 -11z"/>
<path d="M4128 2993 c-18 -15 -35 -28 -37 -29 -1 -2 -1 -8 1 -14 2 -6 20 7 41
30 45 46 43 52 -5 13z"/>
<path d="M5432 2939 c-53 -10 -148 -63 -184 -103 -16 -17 -32 -52 -39 -82 -11
-50 -10 -56 20 -118 l31 -65 52 -6 c164 -20 355 46 395 137 22 49 -6 153 -49
186 -9 7 -24 20 -33 28 -30 31 -109 40 -193 23z m46 -35 c33 -3 36 -5 19 -15
-9 -5 -21 -8 -26 -5 -5 3 -14 -1 -21 -9 -7 -8 -9 -15 -6 -15 4 0 3 -8 -3 -17
-5 -10 -5 -26 0 -41 9 -22 7 -24 -16 -20 -14 3 -28 2 -30 -3 -8 -12 33 -21 65
-14 26 6 30 3 36 -20 4 -18 2 -30 -7 -36 -10 -6 -6 -9 14 -9 22 0 27 5 27 23
0 13 -5 28 -12 35 -9 9 -3 12 28 12 47 0 64 14 64 52 0 31 -34 68 -62 68 -11
0 -16 5 -13 10 3 6 -5 10 -19 10 -41 0 -38 17 3 18 24 1 44 -4 51 -13 7 -8 17
-12 23 -8 6 3 7 1 3 -5 -4 -8 0 -12 11 -12 54 -1 112 -117 68 -134 -13 -4 -14
-10 -5 -26 14 -27 -4 -54 -61 -89 -56 -35 -85 -45 -94 -31 -9 15 -35 12 -29
-3 3 -8 -1 -14 -8 -14 -7 -1 -40 -3 -73 -6 -103 -8 -124 -1 -146 52 -10 25
-23 54 -29 63 -12 22 -13 31 -1 24 5 -4 7 3 4 14 -4 14 -1 20 8 18 10 -2 13 5
11 24 -3 33 6 39 64 43 54 3 57 6 57 45 0 17 1 30 1 30 1 0 19 7 41 14 30 11
41 11 45 3 3 -7 11 -12 18 -13z m102 -49 c21 -25 4 -62 -31 -69 -52 -10 -78
-7 -87 12 -20 38 13 72 69 72 20 0 42 -7 49 -15z m-237 -8 c3 -8 -6 -12 -29
-13 -40 -1 -42 3 -11 16 30 12 34 12 40 -3z"/>
<path d="M5408 2894 c6 -3 9 -10 6 -16 -4 -6 -1 -9 5 -7 19 7 14 24 -6 26 -10
2 -12 0 -5 -3z"/>
<path d="M5370 2750 c20 -13 33 -13 25 0 -3 6 -14 10 -23 10 -15 0 -15 -2 -2
-10z"/>
<path d="M5380 2700 c0 -5 4 -10 9 -10 6 0 13 5 16 10 3 6 -1 10 -9 10 -9 0
-16 -4 -16 -10z"/>
<path d="M5315 2680 c-3 -5 -1 -10 4 -10 6 0 11 5 11 10 0 6 -2 10 -4 10 -3 0
-8 -4 -11 -10z"/>
<path d="M5508 2643 c7 -3 16 -2 19 1 4 3 -2 6 -13 5 -11 0 -14 -3 -6 -6z"/>
<path d="M5540 2640 c0 -5 4 -10 9 -10 6 0 13 5 16 10 3 6 -1 10 -9 10 -9 0
-16 -4 -16 -10z"/>
<path d="M4045 2900 c-3 -5 -1 -10 4 -10 6 0 11 5 11 10 0 6 -2 10 -4 10 -3 0
-8 -4 -11 -10z"/>
<path d="M3270 2880 c0 -5 5 -10 11 -10 5 0 7 5 4 10 -3 6 -8 10 -11 10 -2 0
-4 -4 -4 -10z"/>
<path d="M4010 2841 c0 -6 4 -13 10 -16 6 -3 7 1 4 9 -7 18 -14 21 -14 7z"/>
<path d="M3998 2803 c7 -3 16 -2 19 1 4 3 -2 6 -13 5 -11 0 -14 -3 -6 -6z"/>
<path d="M3990 2790 c-8 -26 -7 -41 2 -32 6 6 8 16 5 24 -3 7 -6 11 -7 8z"/>
<path d="M5881 2770 c0 -8 4 -24 8 -34 6 -15 10 -16 16 -7 4 7 3 16 -2 20 -6
3 -13 13 -16 21 -5 13 -5 13 -6 0z"/>
<path d="M3966 2684 c-8 -41 1 -97 15 -88 12 7 12 124 0 124 -5 0 -12 -16 -15
-36z"/>
<path d="M3982 2560 c0 -14 2 -19 5 -12 2 6 2 18 0 25 -3 6 -5 1 -5 -13z"/>
<path d="M3977 2510 c3 -11 9 -20 15 -20 5 0 4 9 -2 20 -6 11 -12 20 -14 20
-2 0 -2 -9 1 -20z"/>
<path d="M1800 2455 c0 -17 2 -18 24 -9 18 7 12 24 -10 24 -8 0 -14 -7 -14
-15z"/>
<path d="M1850 2340 c0 -5 5 -10 11 -10 5 0 7 5 4 10 -3 6 -8 10 -11 10 -2 0
-4 -4 -4 -10z"/>
<path d="M3075 2190 c4 -6 11 -8 16 -5 14 9 11 15 -7 15 -8 0 -12 -5 -9 -10z"/>
<path d="M3335 2190 c-3 -5 -1 -10 4 -10 6 0 11 5 11 10 0 6 -2 10 -4 10 -3 0
-8 -4 -11 -10z"/>
<path d="M3360 2122 c0 -5 7 -15 15 -22 8 -7 15 -8 15 -2 0 5 -7 15 -15 22 -8
7 -15 8 -15 2z"/>
<path d="M3615 2070 c-3 -5 -1 -10 4 -10 6 0 11 5 11 10 0 6 -2 10 -4 10 -3 0
-8 -4 -11 -10z"/>
<path d="M3201 1903 l206 -3 6 -98 c3 -53 4 -252 2 -442 -4 -342 -3 -343 6
-120 5 124 8 323 7 444 l-3 219 165 -6 c99 -3 139 -2 100 3 -36 4 -207 7 -380
7 -213 -1 -248 -3 -109 -4z"/>
<path d="M3965 1883 l210 -3 -1 -353 -1 -352 7 350 c4 193 7 351 8 352 1 1 73
4 160 6 86 1 -12 3 -218 2 -206 0 -280 -1 -165 -2z"/>
<path d="M4533 1873 c9 -2 25 -2 35 0 9 3 1 5 -18 5 -19 0 -27 -2 -17 -5z"/>
<path d="M4603 1863 c9 -2 23 -2 30 0 6 3 -1 5 -18 5 -16 0 -22 -2 -12 -5z"/>
<path d="M4693 1853 c9 -2 23 -2 30 0 6 3 -1 5 -18 5 -16 0 -22 -2 -12 -5z"/>
<path d="M4763 1843 c9 -2 25 -2 35 0 9 3 1 5 -18 5 -19 0 -27 -2 -17 -5z"/>
<path d="M4868 1833 l32 -4 0 -303 0 -303 -67 -6 c-102 -10 -154 -41 -270
-159 -54 -57 -104 -118 -111 -135 -15 -44 -7 -42 17 5 24 45 83 110 173 190
72 63 142 92 226 92 l42 0 0 308 0 307 132 -1 133 -1 -100 7 c-103 8 -265 10
-207 3z"/>
<path d="M6528 1833 c7 -3 16 -2 19 1 4 3 -2 6 -13 5 -11 0 -14 -3 -6 -6z"/>
<path d="M1812 1775 c0 -16 2 -22 5 -12 2 9 2 23 0 30 -3 6 -5 -1 -5 -18z"/>
<path d="M1821 1724 c0 -11 3 -14 6 -6 3 7 2 16 -1 19 -3 4 -6 -2 -5 -13z"/>
<path d="M2714 1565 c0 -99 2 -138 3 -87 2 51 2 132 0 180 -1 48 -3 6 -3 -93z"/>
<path d="M1832 1670 c0 -14 2 -19 5 -12 2 6 2 18 0 25 -3 6 -5 1 -5 -13z"/>
<path d="M1885 1510 c3 -14 10 -54 16 -89 6 -35 15 -58 19 -51 4 6 -1 41 -12
78 -19 71 -32 103 -23 62z"/>
<path d="M1831 1490 c0 -8 6 -28 14 -45 17 -39 18 -21 0 25 -7 19 -14 28 -14
20z"/>
<path d="M1970 1326 c0 -2 8 -10 18 -17 15 -13 16 -12 3 4 -13 16 -21 21 -21
13z"/>
<path d="M2723 1215 c0 -66 3 -149 7 -185 l7 -65 0 80 c0 44 -3 127 -7 185
l-7 105 0 -120z"/>
<path d="M5121 1094 c0 -11 3 -14 6 -6 3 7 2 16 -1 19 -3 4 -6 -2 -5 -13z"/>
<path d="M4690 895 c-17 -21 1 -39 29 -30 25 8 28 30 5 39 -21 8 -20 8 -34 -9z"/>
<path d="M4898 883 c7 -3 16 -2 19 1 4 3 -2 6 -13 5 -11 0 -14 -3 -6 -6z"/>
<path d="M4130 846 c0 -2 7 -6 15 -10 8 -3 15 -1 15 4 0 6 -7 10 -15 10 -8 0
-15 -2 -15 -4z"/>
<path d="M4033 823 c9 -2 25 -2 35 0 9 3 1 5 -18 5 -19 0 -27 -2 -17 -5z"/>
<path d="M3936 813 c-2 -2 -14 -6 -26 -8 -25 -5 -36 -12 -29 -20 3 -2 32 4 64
15 47 15 53 18 27 17 -18 -1 -34 -3 -36 -4z"/>
<path d="M5085 790 c-3 -5 -2 -10 4 -10 5 0 13 5 16 10 3 6 2 10 -4 10 -5 0
-13 -4 -16 -10z"/>
<path d="M3578 783 c7 -3 16 -2 19 1 4 3 -2 6 -13 5 -11 0 -14 -3 -6 -6z"/>
<path d="M3712 785 c3 -3 39 -8 79 -11 41 -3 71 -2 67 2 -4 4 -40 9 -80 11
-39 2 -69 1 -66 -2z"/>
<path d="M5472 730 c0 -19 2 -27 5 -17 2 9 2 25 0 35 -3 9 -5 1 -5 -18z"/>
<path d="M4980 740 c0 -5 5 -10 11 -10 5 0 7 5 4 10 -3 6 -8 10 -11 10 -2 0
-4 -4 -4 -10z"/>
<path d="M5580 736 c0 -2 7 -7 16 -10 8 -3 12 -2 9 4 -6 10 -25 14 -25 6z"/>
<path d="M2551 726 c11 -10 81 -46 90 -46 19 0 -2 20 -38 35 -33 14 -62 20
-52 11z"/>
<path d="M4139 713 c-13 -15 -12 -15 11 -3 34 17 36 20 18 20 -9 0 -22 -7 -29
-17z"/>
<path d="M4930 720 c0 -5 5 -10 10 -10 6 0 10 5 10 10 0 6 -4 10 -10 10 -5 0
-10 -4 -10 -10z"/>
<path d="M5818 703 c-21 -2 -38 -9 -38 -14 0 -15 83 -6 88 9 2 6 0 11 -5 10
-4 -1 -25 -3 -45 -5z"/>
<path d="M5382 518 c-14 -14 -16 -28 -3 -28 9 0 24 30 18 36 -2 2 -9 -2 -15
-8z"/>
<path d="M1828 483 c6 -2 18 -2 25 0 6 3 1 5 -13 5 -14 0 -19 -2 -12 -5z"/>
<path d="M1788 473 c7 -3 16 -2 19 1 4 3 -2 6 -13 5 -11 0 -14 -3 -6 -6z"/>
<path d="M1736 461 c-3 -5 -5 -21 -4 -35 3 -32 38 -45 73 -26 48 26 77 -21 35
-57 -32 -28 -26 -66 13 -85 42 -20 68 -17 97 10 47 44 98 18 78 -40 -6 -15
-14 -28 -19 -28 -5 0 -9 -11 -9 -23 0 -55 70 -73 144 -38 60 29 83 11 65 -51
-12 -44 -12 -65 1 -52 5 5 13 31 16 57 11 77 -21 95 -97 56 -78 -39 -126 -10
-94 57 25 54 12 88 -36 92 -25 2 -40 -3 -54 -18 -31 -34 -115 -21 -115 19 0
10 9 26 20 36 47 43 7 115 -45 81 -31 -20 -51 -20 -59 0 -10 27 -7 42 12 47
15 4 15 5 0 6 -9 0 -19 -3 -22 -8z"/>
<path d="M3720 376 c0 -2 7 -6 15 -10 8 -3 15 -1 15 4 0 6 -7 10 -15 10 -8 0
-15 -2 -15 -4z"/>
<path d="M3630 340 c0 -6 7 -10 15 -10 8 0 15 2 15 4 0 2 -7 6 -15 10 -8 3
-15 1 -15 -4z"/>
<path d="M3780 320 c0 -5 5 -10 10 -10 6 0 10 5 10 10 0 6 -4 10 -10 10 -5 0
-10 -4 -10 -10z"/>
<path d="M3240 289 c0 -9 3 -19 8 -23 4 -4 7 -11 8 -14 4 -31 28 -101 33 -97
9 9 8 65 -1 65 -5 0 -8 4 -8 10 0 5 -9 24 -20 42 -11 19 -20 26 -20 17z"/>
<path d="M3900 275 c-8 -9 -8 -15 -2 -15 12 0 26 19 19 26 -2 2 -10 -2 -17
-11z"/>
<path d="M3605 270 c-3 -5 1 -10 9 -10 9 0 16 5 16 10 0 6 -4 10 -9 10 -6 0
-13 -4 -16 -10z"/>
<path d="M3716 264 c-3 -8 1 -14 9 -14 20 0 28 17 11 23 -8 3 -17 -1 -20 -9z"/>
<path d="M3805 260 c3 -5 8 -10 11 -10 2 0 4 5 4 10 0 6 -5 10 -11 10 -5 0 -7
-4 -4 -10z"/>
<path d="M3867 244 c-4 -4 -7 -14 -7 -23 0 -11 3 -12 11 -4 6 6 10 16 7 23 -2
6 -7 8 -11 4z"/>
<path d="M3756 208 c-3 -13 -6 -27 -6 -33 1 -15 30 27 30 42 0 22 -17 15 -24
-9z"/>
<path d="M5198 223 c7 -3 16 -2 19 1 4 3 -2 6 -13 5 -11 0 -14 -3 -6 -6z"/>
<path d="M3632 187 c-10 -12 -9 -16 4 -21 23 -9 42 -8 28 2 -6 4 -13 13 -15
21 -4 11 -7 10 -17 -2z"/>
<path d="M3686 166 c7 -19 38 -22 32 -3 -3 6 -12 13 -21 15 -12 2 -15 -1 -11
-12z"/>
<path d="M3301 153 c0 -5 4 -17 9 -28 8 -18 9 -17 9 8 1 15 -3 27 -9 27 -5 0
-10 -3 -9 -7z"/>
<path d="M3594 128 c-3 -4 13 -8 35 -8 23 0 41 2 41 4 0 8 -71 12 -76 4z"/>
<path d="M3774 125 c26 -19 42 -19 26 0 -7 8 -20 15 -29 15 -13 -1 -13 -3 3
-15z"/>
<path d="M3310 90 c0 -5 -7 -10 -15 -10 -8 0 -15 -7 -15 -16 0 -11 -5 -14 -17
-10 -10 4 -14 4 -10 0 4 -4 -1 -13 -11 -20 -16 -12 -16 -13 0 -14 17 0 78 55
78 71 0 5 -2 9 -5 9 -3 0 -5 -4 -5 -10z"/>
<path d="M3620 80 c0 -5 7 -10 16 -10 8 0 12 5 9 10 -3 6 -10 10 -16 10 -5 0
-9 -4 -9 -10z"/>
<path d="M3746 62 c-3 -6 -1 -14 5 -17 15 -10 25 3 12 16 -7 7 -13 7 -17 1z"/>
<path d="M2305 44 c-13 -10 -32 -14 -52 -10 -24 3 -33 1 -33 -10 0 -20 64 -18
100 2 32 19 80 12 80 -11 0 -8 7 -15 15 -15 21 0 19 16 -5 40 -24 24 -76 26
-105 4z"/>
<path d="M3678 33 c7 -3 16 -2 19 1 4 3 -2 6 -13 5 -11 0 -14 -3 -6 -6z"/>
<path d="M4755 10 c-3 -5 -1 -10 4 -10 6 0 11 5 11 10 0 6 -2 10 -4 10 -3 0
-8 -4 -11 -10z"/>
<path d="M3848 3 c7 -3 16 -2 19 1 4 3 -2 6 -13 5 -11 0 -14 -3 -6 -6z"/>
</g>
</svg>
